<?xml version="1.0" encoding="utf-8"?>
<!-- Generator: Adobe Illustrator 22.1.0, SVG Export Plug-In . SVG Version: 6.00 Build 0)  -->
<svg version="1.1" id="Capa_1" xmlns="http://www.w3.org/2000/svg" xmlns:xlink="http://www.w3.org/1999/xlink" x="0px" y="0px"
	 viewBox="0 0 100 100" style="enable-background:new 0 0 100 100;" xml:space="preserve">
<style type="text/css">
	.st0{fill:#605978;}
</style>
<g id="XMLID_20_">
	<polygon class="st0" points="0,3.1 0,0.1 3,0.1 3,3.1 0,3.1 	"/>
	<polygon class="st0" points="3,3.1 3,0.1 6.1,0.1 6.1,3.1 3,3.1 	"/>
	<polygon class="st0" points="6.1,3.1 6.1,0.1 9.1,0.1 9.1,3.1 6.1,3.1 	"/>
	<polygon class="st0" points="9.1,3.1 9.1,0.1 12.1,0.1 12.1,3.1 9.1,3.1 	"/>
	<polygon class="st0" points="12.1,3.1 12.1,0.1 15.1,0.1 15.1,3.1 12.1,3.1 	"/>
	<polygon class="st0" points="15.1,3.1 15.1,0.1 18.2,0.1 18.2,3.1 15.1,3.1 	"/>
	<polygon class="st0" points="18.2,3.1 18.2,0.1 21.2,0.1 21.2,3.1 18.2,3.1 	"/>
	<polygon class="st0" points="27.2,3.1 27.2,0.1 30.3,0.1 30.3,3.1 27.2,3.1 	"/>
	<polygon class="st0" points="33.3,3.1 33.3,0.1 36.3,0.1 36.3,3.1 33.3,3.1 	"/>
	<polygon class="st0" points="36.3,3.1 36.3,0.1 39.3,0.1 39.3,3.1 36.3,3.1 	"/>
	<polygon class="st0" points="39.3,3.1 39.3,0.1 42.4,0.1 42.4,3.1 39.3,3.1 	"/>
	<polygon class="st0" points="42.4,3.1 42.4,0.1 45.4,0.1 45.4,3.1 42.4,3.1 	"/>
	<polygon class="st0" points="48.4,3.1 48.4,0.1 51.5,0.1 51.5,3.1 48.4,3.1 	"/>
	<polygon class="st0" points="51.5,3.1 51.5,0.1 54.5,0.1 54.5,3.1 51.5,3.1 	"/>
	<polygon class="st0" points="54.5,3.1 54.5,0.1 57.5,0.1 57.5,3.1 54.5,3.1 	"/>
	<polygon class="st0" points="57.5,3.1 57.5,0.1 60.5,0.1 60.5,3.1 57.5,3.1 	"/>
	<polygon class="st0" points="60.5,3.1 60.5,0.1 63.6,0.1 63.6,3.1 60.5,3.1 	"/>
	<polygon class="st0" points="63.6,3.1 63.6,0.1 66.6,0.1 66.6,3.1 63.6,3.1 	"/>
	<polygon class="st0" points="66.6,3.1 66.6,0.1 69.6,0.1 69.6,3.1 66.6,3.1 	"/>
	<polygon class="st0" points="69.6,3.1 69.6,0.1 72.6,0.1 72.6,3.1 69.6,3.1 	"/>
	<polygon class="st0" points="78.7,3.1 78.7,0.1 81.7,0.1 81.7,3.1 78.7,3.1 	"/>
	<polygon class="st0" points="81.7,3.1 81.7,0.1 84.8,0.1 84.8,3.1 81.7,3.1 	"/>
	<polygon class="st0" points="84.8,3.1 84.8,0.1 87.8,0.1 87.8,3.1 84.8,3.1 	"/>
	<polygon class="st0" points="87.8,3.1 87.8,0.1 90.8,0.1 90.8,3.1 87.8,3.1 	"/>
	<polygon class="st0" points="90.8,3.1 90.8,0.1 93.8,0.1 93.8,3.1 90.8,3.1 	"/>
	<polygon class="st0" points="93.8,3.1 93.8,0.1 96.9,0.1 96.9,3.1 93.8,3.1 	"/>
	<polygon class="st0" points="96.9,3.1 96.9,0.1 99.9,0.1 99.9,3.1 96.9,3.1 	"/>
	<polygon class="st0" points="0,6.2 0,3.1 3,3.1 3,6.2 0,6.2 	"/>
	<polygon class="st0" points="18.2,6.2 18.2,3.1 21.2,3.1 21.2,6.2 18.2,6.2 	"/>
	<polygon class="st0" points="27.2,6.2 27.2,3.1 30.3,3.1 30.3,6.2 27.2,6.2 	"/>
	<polygon class="st0" points="30.3,6.2 30.3,3.1 33.3,3.1 33.3,6.2 30.3,6.2 	"/>
	<polygon class="st0" points="39.3,6.2 39.3,3.1 42.4,3.1 42.4,6.2 39.3,6.2 	"/>
	<polygon class="st0" points="42.4,6.2 42.4,3.1 45.4,3.1 45.4,6.2 42.4,6.2 	"/>
	<polygon class="st0" points="45.4,6.2 45.4,3.1 48.4,3.1 48.4,6.2 45.4,6.2 	"/>
	<polygon class="st0" points="48.4,6.2 48.4,3.1 51.5,3.1 51.5,6.2 48.4,6.2 	"/>
	<polygon class="st0" points="51.5,6.2 51.5,3.1 54.5,3.1 54.5,6.2 51.5,6.2 	"/>
	<polygon class="st0" points="60.5,6.2 60.5,3.1 63.6,3.1 63.6,6.2 60.5,6.2 	"/>
	<polygon class="st0" points="63.6,6.2 63.6,3.1 66.6,3.1 66.6,6.2 63.6,6.2 	"/>
	<polygon class="st0" points="78.7,6.2 78.7,3.1 81.7,3.1 81.7,6.2 78.7,6.2 	"/>
	<polygon class="st0" points="96.9,6.2 96.9,3.1 99.9,3.1 99.9,6.2 96.9,6.2 	"/>
	<polygon class="st0" points="0,9.2 0,6.2 3,6.2 3,9.2 0,9.2 	"/>
	<polygon class="st0" points="6.1,9.2 6.1,6.2 9.1,6.2 9.1,9.2 6.1,9.2 	"/>
	<polygon class="st0" points="9.1,9.2 9.1,6.2 12.1,6.2 12.1,9.2 9.1,9.2 	"/>
	<polygon class="st0" points="12.1,9.2 12.1,6.2 15.1,6.2 15.1,9.2 12.1,9.2 	"/>
	<polygon class="st0" points="18.2,9.2 18.2,6.2 21.2,6.2 21.2,9.2 18.2,9.2 	"/>
	<polygon class="st0" points="24.2,9.2 24.2,6.2 27.2,6.2 27.2,9.2 24.2,9.2 	"/>
	<polygon class="st0" points="30.3,9.2 30.3,6.2 33.3,6.2 33.3,9.2 30.3,9.2 	"/>
	<polygon class="st0" points="33.3,9.2 33.3,6.2 36.3,6.2 36.3,9.2 33.3,9.2 	"/>
	<polygon class="st0" points="36.3,9.2 36.3,6.2 39.3,6.2 39.3,9.2 36.3,9.2 	"/>
	<polygon class="st0" points="39.3,9.2 39.3,6.2 42.4,6.2 42.4,9.2 39.3,9.2 	"/>
	<polygon class="st0" points="45.4,9.2 45.4,6.2 48.4,6.2 48.4,9.2 45.4,9.2 	"/>
	<polygon class="st0" points="48.4,9.2 48.4,6.2 51.5,6.2 51.5,9.2 48.4,9.2 	"/>
	<polygon class="st0" points="51.5,9.2 51.5,6.2 54.5,6.2 54.5,9.2 51.5,9.2 	"/>
	<polygon class="st0" points="54.5,9.2 54.5,6.2 57.5,6.2 57.5,9.2 54.5,9.2 	"/>
	<polygon class="st0" points="57.5,9.2 57.5,6.2 60.5,6.2 60.5,9.2 57.5,9.2 	"/>
	<polygon class="st0" points="63.6,9.2 63.6,6.2 66.6,6.2 66.6,9.2 63.6,9.2 	"/>
	<polygon class="st0" points="72.6,9.2 72.6,6.2 75.7,6.2 75.7,9.2 72.6,9.2 	"/>
	<polygon class="st0" points="78.7,9.2 78.7,6.2 81.7,6.2 81.7,9.2 78.7,9.2 	"/>
	<polygon class="st0" points="84.8,9.2 84.8,6.2 87.8,6.2 87.8,9.2 84.8,9.2 	"/>
	<polygon class="st0" points="87.8,9.2 87.8,6.2 90.8,6.2 90.8,9.2 87.8,9.2 	"/>
	<polygon class="st0" points="90.8,9.2 90.8,6.2 93.8,6.2 93.8,9.2 90.8,9.2 	"/>
	<polygon class="st0" points="96.9,9.2 96.9,6.2 99.9,6.2 99.9,9.2 96.9,9.2 	"/>
	<polygon class="st0" points="0,12.2 0,9.2 3,9.2 3,12.2 0,12.2 	"/>
	<polygon class="st0" points="6.1,12.2 6.1,9.2 9.1,9.2 9.1,12.2 6.1,12.2 	"/>
	<polygon class="st0" points="9.1,12.2 9.1,9.2 12.1,9.2 12.1,12.2 9.1,12.2 	"/>
	<polygon class="st0" points="12.1,12.2 12.1,9.2 15.1,9.2 15.1,12.2 12.1,12.2 	"/>
	<polygon class="st0" points="18.2,12.2 18.2,9.2 21.2,9.2 21.2,12.2 18.2,12.2 	"/>
	<polygon class="st0" points="24.2,12.2 24.2,9.2 27.2,9.2 27.2,12.2 24.2,12.2 	"/>
	<polygon class="st0" points="27.2,12.2 27.2,9.2 30.3,9.2 30.3,12.2 27.2,12.2 	"/>
	<polygon class="st0" points="42.4,12.2 42.4,9.2 45.4,9.2 45.4,12.2 42.4,12.2 	"/>
	<polygon class="st0" points="45.4,12.2 45.4,9.2 48.4,9.2 48.4,12.2 45.4,12.2 	"/>
	<polygon class="st0" points="48.4,12.2 48.4,9.2 51.5,9.2 51.5,12.2 48.4,12.2 	"/>
	<polygon class="st0" points="60.5,12.2 60.5,9.2 63.6,9.2 63.6,12.2 60.5,12.2 	"/>
	<polygon class="st0" points="69.6,12.2 69.6,9.2 72.6,9.2 72.6,12.2 69.6,12.2 	"/>
	<polygon class="st0" points="78.7,12.2 78.7,9.2 81.7,9.2 81.7,12.2 78.7,12.2 	"/>
	<polygon class="st0" points="84.8,12.2 84.8,9.2 87.8,9.2 87.8,12.2 84.8,12.2 	"/>
	<polygon class="st0" points="87.8,12.2 87.8,9.2 90.8,9.2 90.8,12.2 87.8,12.2 	"/>
	<polygon class="st0" points="90.8,12.2 90.8,9.2 93.8,9.2 93.8,12.2 90.8,12.2 	"/>
	<polygon class="st0" points="96.9,12.2 96.9,9.2 99.9,9.2 99.9,12.2 96.9,12.2 	"/>
	<polygon class="st0" points="0,15.2 0,12.2 3,12.2 3,15.2 0,15.2 	"/>
	<polygon class="st0" points="6.1,15.2 6.1,12.2 9.1,12.2 9.1,15.2 6.1,15.2 	"/>
	<polygon class="st0" points="9.1,15.2 9.1,12.2 12.1,12.2 12.1,15.2 9.1,15.2 	"/>
	<polygon class="st0" points="12.1,15.2 12.1,12.2 15.1,12.2 15.1,15.2 12.1,15.2 	"/>
	<polygon class="st0" points="18.2,15.2 18.2,12.2 21.2,12.2 21.2,15.2 18.2,15.2 	"/>
	<polygon class="st0" points="24.2,15.2 24.2,12.2 27.2,12.2 27.2,15.2 24.2,15.2 	"/>
	<polygon class="st0" points="27.2,15.2 27.2,12.2 30.3,12.2 30.3,15.2 27.2,15.2 	"/>
	<polygon class="st0" points="30.3,15.2 30.3,12.2 33.3,12.2 33.3,15.2 30.3,15.2 	"/>
	<polygon class="st0" points="33.3,15.2 33.3,12.2 36.3,12.2 36.3,15.2 33.3,15.2 	"/>
	<polygon class="st0" points="36.3,15.2 36.3,12.2 39.3,12.2 39.3,15.2 36.3,15.2 	"/>
	<polygon class="st0" points="45.4,15.2 45.4,12.2 48.4,12.2 48.4,15.2 45.4,15.2 	"/>
	<polygon class="st0" points="51.5,15.2 51.5,12.2 54.5,12.2 54.5,15.2 51.5,15.2 	"/>
	<polygon class="st0" points="54.5,15.2 54.5,12.2 57.5,12.2 57.5,15.2 54.5,15.2 	"/>
	<polygon class="st0" points="63.6,15.2 63.6,12.2 66.6,12.2 66.6,15.2 63.6,15.2 	"/>
	<polygon class="st0" points="66.6,15.2 66.6,12.2 69.6,12.2 69.6,15.2 66.6,15.2 	"/>
	<polygon class="st0" points="69.6,15.2 69.6,12.2 72.6,12.2 72.6,15.2 69.6,15.2 	"/>
	<polygon class="st0" points="72.6,15.2 72.6,12.2 75.7,12.2 75.7,15.2 72.6,15.2 	"/>
	<polygon class="st0" points="78.7,15.2 78.7,12.2 81.7,12.2 81.7,15.2 78.7,15.2 	"/>
	<polygon class="st0" points="84.8,15.2 84.8,12.2 87.8,12.2 87.8,15.2 84.8,15.2 	"/>
	<polygon class="st0" points="87.8,15.2 87.8,12.2 90.8,12.2 90.8,15.2 87.8,15.2 	"/>
	<polygon class="st0" points="90.8,15.2 90.8,12.2 93.8,12.2 93.8,15.2 90.8,15.2 	"/>
	<polygon class="st0" points="96.9,15.2 96.9,12.2 99.9,12.2 99.9,15.2 96.9,15.2 	"/>
	<polygon class="st0" points="0,18.3 0,15.2 3,15.2 3,18.3 0,18.3 	"/>
	<polygon class="st0" points="18.2,18.3 18.2,15.2 21.2,15.2 21.2,18.3 18.2,18.3 	"/>
	<polygon class="st0" points="24.2,18.3 24.2,15.2 27.2,15.2 27.2,18.3 24.2,18.3 	"/>
	<polygon class="st0" points="30.3,18.3 30.3,15.2 33.3,15.2 33.3,18.3 30.3,18.3 	"/>
	<polygon class="st0" points="36.3,18.3 36.3,15.2 39.3,15.2 39.3,18.3 36.3,18.3 	"/>
	<polygon class="st0" points="39.3,18.3 39.3,15.2 42.4,15.2 42.4,18.3 39.3,18.3 	"/>
	<polygon class="st0" points="45.4,18.3 45.4,15.2 48.4,15.2 48.4,18.3 45.4,18.3 	"/>
	<polygon class="st0" points="48.4,18.3 48.4,15.2 51.5,15.2 51.5,18.3 48.4,18.3 	"/>
	<polygon class="st0" points="51.5,18.3 51.5,15.2 54.5,15.2 54.5,18.3 51.5,18.3 	"/>
	<polygon class="st0" points="60.5,18.3 60.5,15.2 63.6,15.2 63.6,18.3 60.5,18.3 	"/>
	<polygon class="st0" points="72.6,18.3 72.6,15.2 75.7,15.2 75.7,18.3 72.6,18.3 	"/>
	<polygon class="st0" points="78.7,18.3 78.7,15.2 81.7,15.2 81.7,18.3 78.7,18.3 	"/>
	<polygon class="st0" points="96.9,18.3 96.9,15.2 99.9,15.2 99.9,18.3 96.9,18.3 	"/>
	<polygon class="st0" points="0,21.3 0,18.3 3,18.3 3,21.3 0,21.3 	"/>
	<polygon class="st0" points="3,21.3 3,18.3 6.1,18.3 6.1,21.3 3,21.3 	"/>
	<polygon class="st0" points="6.1,21.3 6.1,18.3 9.1,18.3 9.1,21.3 6.1,21.3 	"/>
	<polygon class="st0" points="9.1,21.3 9.1,18.3 12.1,18.3 12.1,21.3 9.1,21.3 	"/>
	<polygon class="st0" points="12.1,21.3 12.1,18.3 15.1,18.3 15.1,21.3 12.1,21.3 	"/>
	<polygon class="st0" points="15.1,21.3 15.1,18.3 18.2,18.3 18.2,21.3 15.1,21.3 	"/>
	<polygon class="st0" points="18.2,21.3 18.2,18.3 21.2,18.3 21.2,21.3 18.2,21.3 	"/>
	<polygon class="st0" points="24.2,21.3 24.2,18.3 27.2,18.3 27.2,21.3 24.2,21.3 	"/>
	<polygon class="st0" points="30.3,21.3 30.3,18.3 33.3,18.3 33.3,21.3 30.3,21.3 	"/>
	<polygon class="st0" points="36.3,21.3 36.3,18.3 39.3,18.3 39.3,21.3 36.3,21.3 	"/>
	<polygon class="st0" points="42.4,21.3 42.4,18.3 45.4,18.3 45.4,21.3 42.4,21.3 	"/>
	<polygon class="st0" points="48.4,21.3 48.4,18.3 51.5,18.3 51.5,21.3 48.4,21.3 	"/>
	<polygon class="st0" points="54.5,21.3 54.5,18.3 57.5,18.3 57.5,21.3 54.5,21.3 	"/>
	<polygon class="st0" points="60.5,21.3 60.5,18.3 63.6,18.3 63.6,21.3 60.5,21.3 	"/>
	<polygon class="st0" points="66.6,21.3 66.6,18.3 69.6,18.3 69.6,21.3 66.6,21.3 	"/>
	<polygon class="st0" points="72.6,21.3 72.6,18.3 75.7,18.3 75.7,21.3 72.6,21.3 	"/>
	<polygon class="st0" points="78.7,21.3 78.7,18.3 81.7,18.3 81.7,21.3 78.7,21.3 	"/>
	<polygon class="st0" points="81.7,21.3 81.7,18.3 84.8,18.3 84.8,21.3 81.7,21.3 	"/>
	<polygon class="st0" points="84.8,21.3 84.8,18.3 87.8,18.3 87.8,21.3 84.8,21.3 	"/>
	<polygon class="st0" points="87.8,21.3 87.8,18.3 90.8,18.3 90.8,21.3 87.8,21.3 	"/>
	<polygon class="st0" points="90.8,21.3 90.8,18.3 93.8,18.3 93.8,21.3 90.8,21.3 	"/>
	<polygon class="st0" points="93.8,21.3 93.8,18.3 96.9,18.3 96.9,21.3 93.8,21.3 	"/>
	<polygon class="st0" points="96.9,21.3 96.9,18.3 99.9,18.3 99.9,21.3 96.9,21.3 	"/>
	<polygon class="st0" points="24.2,24.3 24.2,21.3 27.2,21.3 27.2,24.3 24.2,24.3 	"/>
	<polygon class="st0" points="30.3,24.3 30.3,21.3 33.3,21.3 33.3,24.3 30.3,24.3 	"/>
	<polygon class="st0" points="33.3,24.3 33.3,21.3 36.3,21.3 36.3,24.3 33.3,24.3 	"/>
	<polygon class="st0" points="45.4,24.3 45.4,21.3 48.4,21.3 48.4,24.3 45.4,24.3 	"/>
	<polygon class="st0" points="63.6,24.3 63.6,21.3 66.6,21.3 66.6,24.3 63.6,24.3 	"/>
	<polygon class="st0" points="66.6,24.3 66.6,21.3 69.6,21.3 69.6,24.3 66.6,24.3 	"/>
	<polygon class="st0" points="72.6,24.3 72.6,21.3 75.7,21.3 75.7,24.3 72.6,24.3 	"/>
	<polygon class="st0" points="0,27.4 0,24.3 3,24.3 3,27.4 0,27.4 	"/>
	<polygon class="st0" points="6.1,27.4 6.1,24.3 9.1,24.3 9.1,27.4 6.1,27.4 	"/>
	<polygon class="st0" points="9.1,27.4 9.1,24.3 12.1,24.3 12.1,27.4 9.1,27.4 	"/>
	<polygon class="st0" points="12.1,27.4 12.1,24.3 15.1,24.3 15.1,27.4 12.1,27.4 	"/>
	<polygon class="st0" points="15.1,27.4 15.1,24.3 18.2,24.3 18.2,27.4 15.1,27.4 	"/>
	<polygon class="st0" points="18.2,27.4 18.2,24.3 21.2,24.3 21.2,27.4 18.2,27.4 	"/>
	<polygon class="st0" points="27.2,27.4 27.2,24.3 30.3,24.3 30.3,27.4 27.2,27.4 	"/>
	<polygon class="st0" points="30.3,27.4 30.3,24.3 33.3,24.3 33.3,27.4 30.3,27.4 	"/>
	<polygon class="st0" points="36.3,27.4 36.3,24.3 39.3,24.3 39.3,27.4 36.3,27.4 	"/>
	<polygon class="st0" points="39.3,27.4 39.3,24.3 42.4,24.3 42.4,27.4 39.3,27.4 	"/>
	<polygon class="st0" points="42.4,27.4 42.4,24.3 45.4,24.3 45.4,27.4 42.4,27.4 	"/>
	<polygon class="st0" points="45.4,27.4 45.4,24.3 48.4,24.3 48.4,27.4 45.4,27.4 	"/>
	<polygon class="st0" points="51.5,27.4 51.5,24.3 54.5,24.3 54.5,27.4 51.5,27.4 	"/>
	<polygon class="st0" points="66.6,27.4 66.6,24.3 69.6,24.3 69.6,27.4 66.6,27.4 	"/>
	<polygon class="st0" points="69.6,27.4 69.6,24.3 72.6,24.3 72.6,27.4 69.6,27.4 	"/>
	<polygon class="st0" points="72.6,27.4 72.6,24.3 75.7,24.3 75.7,27.4 72.6,27.4 	"/>
	<polygon class="st0" points="78.7,27.4 78.7,24.3 81.7,24.3 81.7,27.4 78.7,27.4 	"/>
	<polygon class="st0" points="81.7,27.4 81.7,24.3 84.8,24.3 84.8,27.4 81.7,27.4 	"/>
	<polygon class="st0" points="84.8,27.4 84.8,24.3 87.8,24.3 87.8,27.4 84.8,27.4 	"/>
	<polygon class="st0" points="87.8,27.4 87.8,24.3 90.8,24.3 90.8,27.4 87.8,27.4 	"/>
	<polygon class="st0" points="90.8,27.4 90.8,24.3 93.8,24.3 93.8,27.4 90.8,27.4 	"/>
	<polygon class="st0" points="3,30.4 3,27.4 6.1,27.4 6.1,30.4 3,30.4 	"/>
	<polygon class="st0" points="6.1,30.4 6.1,27.4 9.1,27.4 9.1,30.4 6.1,30.4 	"/>
	<polygon class="st0" points="12.1,30.4 12.1,27.4 15.1,27.4 15.1,30.4 12.1,30.4 	"/>
	<polygon class="st0" points="21.2,30.4 21.2,27.4 24.2,27.4 24.2,30.4 21.2,30.4 	"/>
	<polygon class="st0" points="27.2,30.4 27.2,27.4 30.3,27.4 30.3,30.4 27.2,30.4 	"/>
	<polygon class="st0" points="36.3,30.4 36.3,27.4 39.3,27.4 39.3,30.4 36.3,30.4 	"/>
	<polygon class="st0" points="42.4,30.4 42.4,27.4 45.4,27.4 45.4,30.4 42.4,30.4 	"/>
	<polygon class="st0" points="48.4,30.4 48.4,27.4 51.5,27.4 51.5,30.4 48.4,30.4 	"/>
	<polygon class="st0" points="54.5,30.4 54.5,27.4 57.5,27.4 57.5,30.4 54.5,30.4 	"/>
	<polygon class="st0" points="57.5,30.4 57.5,27.4 60.5,27.4 60.5,30.4 57.5,30.4 	"/>
	<polygon class="st0" points="60.5,30.4 60.5,27.4 63.6,27.4 63.6,30.4 60.5,30.4 	"/>
	<polygon class="st0" points="63.6,30.4 63.6,27.4 66.6,27.4 66.6,30.4 63.6,30.4 	"/>
	<polygon class="st0" points="66.6,30.4 66.6,27.4 69.6,27.4 69.6,30.4 66.6,30.4 	"/>
	<polygon class="st0" points="69.6,30.4 69.6,27.4 72.6,27.4 72.6,30.4 69.6,30.4 	"/>
	<polygon class="st0" points="78.7,30.4 78.7,27.4 81.7,27.4 81.7,30.4 78.7,30.4 	"/>
	<polygon class="st0" points="81.7,30.4 81.7,27.4 84.8,27.4 84.8,30.4 81.7,30.4 	"/>
	<polygon class="st0" points="87.8,30.4 87.8,27.4 90.8,27.4 90.8,30.4 87.8,30.4 	"/>
	<polygon class="st0" points="90.8,30.4 90.8,27.4 93.8,27.4 93.8,30.4 90.8,30.4 	"/>
	<polygon class="st0" points="96.9,30.4 96.9,27.4 99.9,27.4 99.9,30.4 96.9,30.4 	"/>
	<polygon class="st0" points="0,33.4 0,30.4 3,30.4 3,33.4 0,33.4 	"/>
	<polygon class="st0" points="12.1,33.4 12.1,30.4 15.1,30.4 15.1,33.4 12.1,33.4 	"/>
	<polygon class="st0" points="18.2,33.4 18.2,30.4 21.2,30.4 21.2,33.4 18.2,33.4 	"/>
	<polygon class="st0" points="33.3,33.4 33.3,30.4 36.3,30.4 36.3,33.4 33.3,33.4 	"/>
	<polygon class="st0" points="36.3,33.4 36.3,30.4 39.3,30.4 39.3,33.4 36.3,33.4 	"/>
	<polygon class="st0" points="45.4,33.4 45.4,30.4 48.4,30.4 48.4,33.4 45.4,33.4 	"/>
	<polygon class="st0" points="48.4,33.4 48.4,30.4 51.5,30.4 51.5,33.4 48.4,33.4 	"/>
	<polygon class="st0" points="54.5,33.4 54.5,30.4 57.5,30.4 57.5,33.4 54.5,33.4 	"/>
	<polygon class="st0" points="63.6,33.4 63.6,30.4 66.6,30.4 66.6,33.4 63.6,33.4 	"/>
	<polygon class="st0" points="66.6,33.4 66.6,30.4 69.6,30.4 69.6,33.4 66.6,33.4 	"/>
	<polygon class="st0" points="72.6,33.4 72.6,30.4 75.7,30.4 75.7,33.4 72.6,33.4 	"/>
	<polygon class="st0" points="84.8,33.4 84.8,30.4 87.8,30.4 87.8,33.4 84.8,33.4 	"/>
	<polygon class="st0" points="90.8,33.4 90.8,30.4 93.8,30.4 93.8,33.4 90.8,33.4 	"/>
	<polygon class="st0" points="93.8,33.4 93.8,30.4 96.9,30.4 96.9,33.4 93.8,33.4 	"/>
	<polygon class="st0" points="6.1,36.4 6.1,33.4 9.1,33.4 9.1,36.4 6.1,36.4 	"/>
	<polygon class="st0" points="15.1,36.4 15.1,33.4 18.2,33.4 18.2,36.4 15.1,36.4 	"/>
	<polygon class="st0" points="27.2,36.4 27.2,33.4 30.3,33.4 30.3,36.4 27.2,36.4 	"/>
	<polygon class="st0" points="30.3,36.4 30.3,33.4 33.3,33.4 33.3,36.4 30.3,36.4 	"/>
	<polygon class="st0" points="36.3,36.4 36.3,33.4 39.3,33.4 39.3,36.4 36.3,36.4 	"/>
	<polygon class="st0" points="42.4,36.4 42.4,33.4 45.4,33.4 45.4,36.4 42.4,36.4 	"/>
	<polygon class="st0" points="57.5,36.4 57.5,33.4 60.5,33.4 60.5,36.4 57.5,36.4 	"/>
	<polygon class="st0" points="60.5,36.4 60.5,33.4 63.6,33.4 63.6,36.4 60.5,36.4 	"/>
	<polygon class="st0" points="63.6,36.4 63.6,33.4 66.6,33.4 66.6,36.4 63.6,36.4 	"/>
	<polygon class="st0" points="69.6,36.4 69.6,33.4 72.6,33.4 72.6,36.4 69.6,36.4 	"/>
	<polygon class="st0" points="75.7,36.4 75.7,33.4 78.7,33.4 78.7,36.4 75.7,36.4 	"/>
	<polygon class="st0" points="78.7,36.4 78.7,33.4 81.7,33.4 81.7,36.4 78.7,36.4 	"/>
	<polygon class="st0" points="84.8,36.4 84.8,33.4 87.8,33.4 87.8,36.4 84.8,36.4 	"/>
	<polygon class="st0" points="87.8,36.4 87.8,33.4 90.8,33.4 90.8,36.4 87.8,36.4 	"/>
	<polygon class="st0" points="90.8,36.4 90.8,33.4 93.8,33.4 93.8,36.4 90.8,36.4 	"/>
	<polygon class="st0" points="96.9,36.4 96.9,33.4 99.9,33.4 99.9,36.4 96.9,36.4 	"/>
	<polygon class="st0" points="9.1,39.5 9.1,36.4 12.1,36.4 12.1,39.5 9.1,39.5 	"/>
	<polygon class="st0" points="15.1,39.5 15.1,36.4 18.2,36.4 18.2,39.5 15.1,39.5 	"/>
	<polygon class="st0" points="18.2,39.5 18.2,36.4 21.2,36.4 21.2,39.5 18.2,39.5 	"/>
	<polygon class="st0" points="30.3,39.5 30.3,36.4 33.3,36.4 33.3,39.5 30.3,39.5 	"/>
	<polygon class="st0" points="33.3,39.5 33.3,36.4 36.3,36.4 36.3,39.5 33.3,39.5 	"/>
	<polygon class="st0" points="36.3,39.5 36.3,36.4 39.3,36.4 39.3,39.5 36.3,39.5 	"/>
	<polygon class="st0" points="45.4,39.5 45.4,36.4 48.4,36.4 48.4,39.5 45.4,39.5 	"/>
	<polygon class="st0" points="54.5,39.5 54.5,36.4 57.5,36.4 57.5,39.5 54.5,39.5 	"/>
	<polygon class="st0" points="57.5,39.5 57.5,36.4 60.5,36.4 60.5,39.5 57.5,39.5 	"/>
	<polygon class="st0" points="66.6,39.5 66.6,36.4 69.6,36.4 69.6,39.5 66.6,39.5 	"/>
	<polygon class="st0" points="69.6,39.5 69.6,36.4 72.6,36.4 72.6,39.5 69.6,39.5 	"/>
	<polygon class="st0" points="75.7,39.5 75.7,36.4 78.7,36.4 78.7,39.5 75.7,39.5 	"/>
	<polygon class="st0" points="81.7,39.5 81.7,36.4 84.8,36.4 84.8,39.5 81.7,39.5 	"/>
	<polygon class="st0" points="84.8,39.5 84.8,36.4 87.8,36.4 87.8,39.5 84.8,39.5 	"/>
	<polygon class="st0" points="87.8,39.5 87.8,36.4 90.8,36.4 90.8,39.5 87.8,39.5 	"/>
	<polygon class="st0" points="93.8,39.5 93.8,36.4 96.9,36.4 96.9,39.5 93.8,39.5 	"/>
	<polygon class="st0" points="0,42.5 0,39.5 3,39.5 3,42.5 0,42.5 	"/>
	<polygon class="st0" points="3,42.5 3,39.5 6.1,39.5 6.1,42.5 3,42.5 	"/>
	<polygon class="st0" points="9.1,42.5 9.1,39.5 12.1,39.5 12.1,42.5 9.1,42.5 	"/>
	<polygon class="st0" points="12.1,42.5 12.1,39.5 15.1,39.5 15.1,42.5 12.1,42.5 	"/>
	<polygon class="st0" points="27.2,42.5 27.2,39.5 30.3,39.5 30.3,42.5 27.2,42.5 	"/>
	<polygon class="st0" points="30.3,42.5 30.3,39.5 33.3,39.5 33.3,42.5 30.3,42.5 	"/>
	<polygon class="st0" points="33.3,42.5 33.3,39.5 36.3,39.5 36.3,42.5 33.3,42.5 	"/>
	<polygon class="st0" points="42.4,42.5 42.4,39.5 45.4,39.5 45.4,42.5 42.4,42.5 	"/>
	<polygon class="st0" points="45.4,42.5 45.4,39.5 48.4,39.5 48.4,42.5 45.4,42.5 	"/>
	<polygon class="st0" points="48.4,42.5 48.4,39.5 51.5,39.5 51.5,42.5 48.4,42.5 	"/>
	<polygon class="st0" points="51.5,42.5 51.5,39.5 54.5,39.5 54.5,42.5 51.5,42.5 	"/>
	<polygon class="st0" points="60.5,42.5 60.5,39.5 63.6,39.5 63.6,42.5 60.5,42.5 	"/>
	<polygon class="st0" points="63.6,42.5 63.6,39.5 66.6,39.5 66.6,42.5 63.6,42.5 	"/>
	<polygon class="st0" points="69.6,42.5 69.6,39.5 72.6,39.5 72.6,42.5 69.6,42.5 	"/>
	<polygon class="st0" points="72.6,42.5 72.6,39.5 75.7,39.5 75.7,42.5 72.6,42.5 	"/>
	<polygon class="st0" points="78.7,42.5 78.7,39.5 81.7,39.5 81.7,42.5 78.7,42.5 	"/>
	<polygon class="st0" points="93.8,42.5 93.8,39.5 96.9,39.5 96.9,42.5 93.8,42.5 	"/>
	<polygon class="st0" points="96.9,42.5 96.9,39.5 99.9,39.5 99.9,42.5 96.9,42.5 	"/>
	<polygon class="st0" points="0,45.5 0,42.5 3,42.5 3,45.5 0,45.5 	"/>
	<polygon class="st0" points="3,45.5 3,42.5 6.1,42.5 6.1,45.5 3,45.5 	"/>
	<polygon class="st0" points="6.1,45.5 6.1,42.5 9.1,42.5 9.1,45.5 6.1,45.5 	"/>
	<polygon class="st0" points="9.1,45.5 9.1,42.5 12.1,42.5 12.1,45.5 9.1,45.5 	"/>
	<polygon class="st0" points="12.1,45.5 12.1,42.5 15.1,42.5 15.1,45.5 12.1,45.5 	"/>
	<polygon class="st0" points="18.2,45.5 18.2,42.5 21.2,42.5 21.2,45.5 18.2,45.5 	"/>
	<polygon class="st0" points="21.2,45.5 21.2,42.5 24.2,42.5 24.2,45.5 21.2,45.5 	"/>
	<polygon class="st0" points="24.2,45.5 24.2,42.5 27.2,42.5 27.2,45.5 24.2,45.5 	"/>
	<polygon class="st0" points="27.2,45.5 27.2,42.5 30.3,42.5 30.3,45.5 27.2,45.5 	"/>
	<polygon class="st0" points="33.3,45.5 33.3,42.5 36.3,42.5 36.3,45.5 33.3,45.5 	"/>
	<polygon class="st0" points="36.3,45.5 36.3,42.5 39.3,42.5 39.3,45.5 36.3,45.5 	"/>
	<polygon class="st0" points="42.4,45.5 42.4,42.5 45.4,42.5 45.4,45.5 42.4,45.5 	"/>
	<polygon class="st0" points="57.5,45.5 57.5,42.5 60.5,42.5 60.5,45.5 57.5,45.5 	"/>
	<polygon class="st0" points="75.7,45.5 75.7,42.5 78.7,42.5 78.7,45.5 75.7,45.5 	"/>
	<polygon class="st0" points="78.7,45.5 78.7,42.5 81.7,42.5 81.7,45.5 78.7,45.5 	"/>
	<polygon class="st0" points="87.8,45.5 87.8,42.5 90.8,42.5 90.8,45.5 87.8,45.5 	"/>
	<polygon class="st0" points="90.8,45.5 90.8,42.5 93.8,42.5 93.8,45.5 90.8,45.5 	"/>
	<polygon class="st0" points="93.8,45.5 93.8,42.5 96.9,42.5 96.9,45.5 93.8,45.5 	"/>
	<polygon class="st0" points="0,48.5 0,45.5 3,45.5 3,48.5 0,48.5 	"/>
	<polygon class="st0" points="6.1,48.5 6.1,45.5 9.1,45.5 9.1,48.5 6.1,48.5 	"/>
	<polygon class="st0" points="9.1,48.5 9.1,45.5 12.1,45.5 12.1,48.5 9.1,48.5 	"/>
	<polygon class="st0" points="12.1,48.5 12.1,45.5 15.1,45.5 15.1,48.5 12.1,48.5 	"/>
	<polygon class="st0" points="24.2,48.5 24.2,45.5 27.2,45.5 27.2,48.5 24.2,48.5 	"/>
	<polygon class="st0" points="39.3,48.5 39.3,45.5 42.4,45.5 42.4,48.5 39.3,48.5 	"/>
	<polygon class="st0" points="48.4,48.5 48.4,45.5 51.5,45.5 51.5,48.5 48.4,48.5 	"/>
	<polygon class="st0" points="57.5,48.5 57.5,45.5 60.5,45.5 60.5,48.5 57.5,48.5 	"/>
	<polygon class="st0" points="60.5,48.5 60.5,45.5 63.6,45.5 63.6,48.5 60.5,48.5 	"/>
	<polygon class="st0" points="63.6,48.5 63.6,45.5 66.6,45.5 66.6,48.5 63.6,48.5 	"/>
	<polygon class="st0" points="66.6,48.5 66.6,45.5 69.6,45.5 69.6,48.5 66.6,48.5 	"/>
	<polygon class="st0" points="72.6,48.5 72.6,45.5 75.7,45.5 75.7,48.5 72.6,48.5 	"/>
	<polygon class="st0" points="75.7,48.5 75.7,45.5 78.7,45.5 78.7,48.5 75.7,48.5 	"/>
	<polygon class="st0" points="78.7,48.5 78.7,45.5 81.7,45.5 81.7,48.5 78.7,48.5 	"/>
	<polygon class="st0" points="81.7,48.5 81.7,45.5 84.8,45.5 84.8,48.5 81.7,48.5 	"/>
	<polygon class="st0" points="84.8,48.5 84.8,45.5 87.8,45.5 87.8,48.5 84.8,48.5 	"/>
	<polygon class="st0" points="87.8,48.5 87.8,45.5 90.8,45.5 90.8,48.5 87.8,48.5 	"/>
	<polygon class="st0" points="90.8,48.5 90.8,45.5 93.8,45.5 93.8,48.5 90.8,48.5 	"/>
	<polygon class="st0" points="0,51.6 0,48.5 3,48.5 3,51.6 0,51.6 	"/>
	<polygon class="st0" points="6.1,51.6 6.1,48.5 9.1,48.5 9.1,51.6 6.1,51.6 	"/>
	<polygon class="st0" points="9.1,51.6 9.1,48.5 12.1,48.5 12.1,51.6 9.1,51.6 	"/>
	<polygon class="st0" points="15.1,51.6 15.1,48.5 18.2,48.5 18.2,51.6 15.1,51.6 	"/>
	<polygon class="st0" points="18.2,51.6 18.2,48.5 21.2,48.5 21.2,51.6 18.2,51.6 	"/>
	<polygon class="st0" points="21.2,51.6 21.2,48.5 24.2,48.5 24.2,51.6 21.2,51.6 	"/>
	<polygon class="st0" points="24.2,51.6 24.2,48.5 27.2,48.5 27.2,51.6 24.2,51.6 	"/>
	<polygon class="st0" points="27.2,51.6 27.2,48.5 30.3,48.5 30.3,51.6 27.2,51.6 	"/>
	<polygon class="st0" points="30.3,51.6 30.3,48.5 33.3,48.5 33.3,51.6 30.3,51.6 	"/>
	<polygon class="st0" points="33.3,51.6 33.3,48.5 36.3,48.5 36.3,51.6 33.3,51.6 	"/>
	<polygon class="st0" points="36.3,51.6 36.3,48.5 39.3,48.5 39.3,51.6 36.3,51.6 	"/>
	<polygon class="st0" points="39.3,51.6 39.3,48.5 42.4,48.5 42.4,51.6 39.3,51.6 	"/>
	<polygon class="st0" points="51.5,51.6 51.5,48.5 54.5,48.5 54.5,51.6 51.5,51.6 	"/>
	<polygon class="st0" points="54.5,51.6 54.5,48.5 57.5,48.5 57.5,51.6 54.5,51.6 	"/>
	<polygon class="st0" points="57.5,51.6 57.5,48.5 60.5,48.5 60.5,51.6 57.5,51.6 	"/>
	<polygon class="st0" points="66.6,51.6 66.6,48.5 69.6,48.5 69.6,51.6 66.6,51.6 	"/>
	<polygon class="st0" points="72.6,51.6 72.6,48.5 75.7,48.5 75.7,51.6 72.6,51.6 	"/>
	<polygon class="st0" points="75.7,51.6 75.7,48.5 78.7,48.5 78.7,51.6 75.7,51.6 	"/>
	<polygon class="st0" points="81.7,51.6 81.7,48.5 84.8,48.5 84.8,51.6 81.7,51.6 	"/>
	<polygon class="st0" points="84.8,51.6 84.8,48.5 87.8,48.5 87.8,51.6 84.8,51.6 	"/>
	<polygon class="st0" points="96.9,51.6 96.9,48.5 99.9,48.5 99.9,51.6 96.9,51.6 	"/>
	<polygon class="st0" points="3,54.6 3,51.6 6.1,51.6 6.1,54.6 3,54.6 	"/>
	<polygon class="st0" points="6.1,54.6 6.1,51.6 9.1,51.6 9.1,54.6 6.1,54.6 	"/>
	<polygon class="st0" points="9.1,54.6 9.1,51.6 12.1,51.6 12.1,54.6 9.1,54.6 	"/>
	<polygon class="st0" points="24.2,54.6 24.2,51.6 27.2,51.6 27.2,54.6 24.2,54.6 	"/>
	<polygon class="st0" points="33.3,54.6 33.3,51.6 36.3,51.6 36.3,54.6 33.3,54.6 	"/>
	<polygon class="st0" points="36.3,54.6 36.3,51.6 39.3,51.6 39.3,54.6 36.3,54.6 	"/>
	<polygon class="st0" points="39.3,54.6 39.3,51.6 42.4,51.6 42.4,54.6 39.3,54.6 	"/>
	<polygon class="st0" points="42.4,54.6 42.4,51.6 45.4,51.6 45.4,54.6 42.4,54.6 	"/>
	<polygon class="st0" points="48.4,54.6 48.4,51.6 51.5,51.6 51.5,54.6 48.4,54.6 	"/>
	<polygon class="st0" points="51.5,54.6 51.5,51.6 54.5,51.6 54.5,54.6 51.5,54.6 	"/>
	<polygon class="st0" points="54.5,54.6 54.5,51.6 57.5,51.6 57.5,54.6 54.5,54.6 	"/>
	<polygon class="st0" points="57.5,54.6 57.5,51.6 60.5,51.6 60.5,54.6 57.5,54.6 	"/>
	<polygon class="st0" points="63.6,54.6 63.6,51.6 66.6,51.6 66.6,54.6 63.6,54.6 	"/>
	<polygon class="st0" points="69.6,54.6 69.6,51.6 72.6,51.6 72.6,54.6 69.6,54.6 	"/>
	<polygon class="st0" points="72.6,54.6 72.6,51.6 75.7,51.6 75.7,54.6 72.6,54.6 	"/>
	<polygon class="st0" points="75.7,54.6 75.7,51.6 78.7,51.6 78.7,54.6 75.7,54.6 	"/>
	<polygon class="st0" points="78.7,54.6 78.7,51.6 81.7,51.6 81.7,54.6 78.7,54.6 	"/>
	<polygon class="st0" points="81.7,54.6 81.7,51.6 84.8,51.6 84.8,54.6 81.7,54.6 	"/>
	<polygon class="st0" points="87.8,54.6 87.8,51.6 90.8,51.6 90.8,54.6 87.8,54.6 	"/>
	<polygon class="st0" points="90.8,54.6 90.8,51.6 93.8,51.6 93.8,54.6 90.8,54.6 	"/>
	<polygon class="st0" points="96.9,54.6 96.9,51.6 99.9,51.6 99.9,54.6 96.9,54.6 	"/>
	<polygon class="st0" points="15.1,57.6 15.1,54.6 18.2,54.6 18.2,57.6 15.1,57.6 	"/>
	<polygon class="st0" points="18.2,57.6 18.2,54.6 21.2,54.6 21.2,57.6 18.2,57.6 	"/>
	<polygon class="st0" points="21.2,57.6 21.2,54.6 24.2,54.6 24.2,57.6 21.2,57.6 	"/>
	<polygon class="st0" points="24.2,57.6 24.2,54.6 27.2,54.6 27.2,57.6 24.2,57.6 	"/>
	<polygon class="st0" points="27.2,57.6 27.2,54.6 30.3,54.6 30.3,57.6 27.2,57.6 	"/>
	<polygon class="st0" points="33.3,57.6 33.3,54.6 36.3,54.6 36.3,57.6 33.3,57.6 	"/>
	<polygon class="st0" points="36.3,57.6 36.3,54.6 39.3,54.6 39.3,57.6 36.3,57.6 	"/>
	<polygon class="st0" points="45.4,57.6 45.4,54.6 48.4,54.6 48.4,57.6 45.4,57.6 	"/>
	<polygon class="st0" points="48.4,57.6 48.4,54.6 51.5,54.6 51.5,57.6 48.4,57.6 	"/>
	<polygon class="st0" points="51.5,57.6 51.5,54.6 54.5,54.6 54.5,57.6 51.5,57.6 	"/>
	<polygon class="st0" points="63.6,57.6 63.6,54.6 66.6,54.6 66.6,57.6 63.6,57.6 	"/>
	<polygon class="st0" points="81.7,57.6 81.7,54.6 84.8,54.6 84.8,57.6 81.7,57.6 	"/>
	<polygon class="st0" points="84.8,57.6 84.8,54.6 87.8,54.6 87.8,57.6 84.8,57.6 	"/>
	<polygon class="st0" points="90.8,57.6 90.8,54.6 93.8,54.6 93.8,57.6 90.8,57.6 	"/>
	<polygon class="st0" points="93.8,57.6 93.8,54.6 96.9,54.6 96.9,57.6 93.8,57.6 	"/>
	<polygon class="st0" points="6.1,60.7 6.1,57.6 9.1,57.6 9.1,60.7 6.1,60.7 	"/>
	<polygon class="st0" points="9.1,60.7 9.1,57.6 12.1,57.6 12.1,60.7 9.1,60.7 	"/>
	<polygon class="st0" points="15.1,60.7 15.1,57.6 18.2,57.6 18.2,60.7 15.1,60.7 	"/>
	<polygon class="st0" points="21.2,60.7 21.2,57.6 24.2,57.6 24.2,60.7 21.2,60.7 	"/>
	<polygon class="st0" points="27.2,60.7 27.2,57.6 30.3,57.6 30.3,60.7 27.2,60.7 	"/>
	<polygon class="st0" points="30.3,60.7 30.3,57.6 33.3,57.6 33.3,60.7 30.3,60.7 	"/>
	<polygon class="st0" points="36.3,60.7 36.3,57.6 39.3,57.6 39.3,60.7 36.3,60.7 	"/>
	<polygon class="st0" points="42.4,60.7 42.4,57.6 45.4,57.6 45.4,60.7 42.4,60.7 	"/>
	<polygon class="st0" points="48.4,60.7 48.4,57.6 51.5,57.6 51.5,60.7 48.4,60.7 	"/>
	<polygon class="st0" points="51.5,60.7 51.5,57.6 54.5,57.6 54.5,60.7 51.5,60.7 	"/>
	<polygon class="st0" points="54.5,60.7 54.5,57.6 57.5,57.6 57.5,60.7 54.5,60.7 	"/>
	<polygon class="st0" points="60.5,60.7 60.5,57.6 63.6,57.6 63.6,60.7 60.5,60.7 	"/>
	<polygon class="st0" points="63.6,60.7 63.6,57.6 66.6,57.6 66.6,60.7 63.6,60.7 	"/>
	<polygon class="st0" points="66.6,60.7 66.6,57.6 69.6,57.6 69.6,60.7 66.6,60.7 	"/>
	<polygon class="st0" points="69.6,60.7 69.6,57.6 72.6,57.6 72.6,60.7 69.6,60.7 	"/>
	<polygon class="st0" points="75.7,60.7 75.7,57.6 78.7,57.6 78.7,60.7 75.7,60.7 	"/>
	<polygon class="st0" points="81.7,60.7 81.7,57.6 84.8,57.6 84.8,60.7 81.7,60.7 	"/>
	<polygon class="st0" points="84.8,60.7 84.8,57.6 87.8,57.6 87.8,60.7 84.8,60.7 	"/>
	<polygon class="st0" points="87.8,60.7 87.8,57.6 90.8,57.6 90.8,60.7 87.8,60.7 	"/>
	<polygon class="st0" points="90.8,60.7 90.8,57.6 93.8,57.6 93.8,60.7 90.8,60.7 	"/>
	<polygon class="st0" points="93.8,60.7 93.8,57.6 96.9,57.6 96.9,60.7 93.8,60.7 	"/>
	<polygon class="st0" points="6.1,63.7 6.1,60.7 9.1,60.7 9.1,63.7 6.1,63.7 	"/>
	<polygon class="st0" points="15.1,63.7 15.1,60.7 18.2,60.7 18.2,63.7 15.1,63.7 	"/>
	<polygon class="st0" points="18.2,63.7 18.2,60.7 21.2,60.7 21.2,63.7 18.2,63.7 	"/>
	<polygon class="st0" points="21.2,63.7 21.2,60.7 24.2,60.7 24.2,63.7 21.2,63.7 	"/>
	<polygon class="st0" points="27.2,63.7 27.2,60.7 30.3,60.7 30.3,63.7 27.2,63.7 	"/>
	<polygon class="st0" points="30.3,63.7 30.3,60.7 33.3,60.7 33.3,63.7 30.3,63.7 	"/>
	<polygon class="st0" points="33.3,63.7 33.3,60.7 36.3,60.7 36.3,63.7 33.3,63.7 	"/>
	<polygon class="st0" points="42.4,63.7 42.4,60.7 45.4,60.7 45.4,63.7 42.4,63.7 	"/>
	<polygon class="st0" points="48.4,63.7 48.4,60.7 51.5,60.7 51.5,63.7 48.4,63.7 	"/>
	<polygon class="st0" points="57.5,63.7 57.5,60.7 60.5,60.7 60.5,63.7 57.5,63.7 	"/>
	<polygon class="st0" points="81.7,63.7 81.7,60.7 84.8,60.7 84.8,63.7 81.7,63.7 	"/>
	<polygon class="st0" points="84.8,63.7 84.8,60.7 87.8,60.7 87.8,63.7 84.8,63.7 	"/>
	<polygon class="st0" points="87.8,63.7 87.8,60.7 90.8,60.7 90.8,63.7 87.8,63.7 	"/>
	<polygon class="st0" points="96.9,63.7 96.9,60.7 99.9,60.7 99.9,63.7 96.9,63.7 	"/>
	<polygon class="st0" points="0,66.7 0,63.7 3,63.7 3,66.7 0,66.7 	"/>
	<polygon class="st0" points="3,66.7 3,63.7 6.1,63.7 6.1,66.7 3,66.7 	"/>
	<polygon class="st0" points="9.1,66.7 9.1,63.7 12.1,63.7 12.1,66.7 9.1,66.7 	"/>
	<polygon class="st0" points="15.1,66.7 15.1,63.7 18.2,63.7 18.2,66.7 15.1,66.7 	"/>
	<polygon class="st0" points="24.2,66.7 24.2,63.7 27.2,63.7 27.2,66.7 24.2,66.7 	"/>
	<polygon class="st0" points="36.3,66.7 36.3,63.7 39.3,63.7 39.3,66.7 36.3,66.7 	"/>
	<polygon class="st0" points="42.4,66.7 42.4,63.7 45.4,63.7 45.4,66.7 42.4,66.7 	"/>
	<polygon class="st0" points="45.4,66.7 45.4,63.7 48.4,63.7 48.4,66.7 45.4,66.7 	"/>
	<polygon class="st0" points="51.5,66.7 51.5,63.7 54.5,63.7 54.5,66.7 51.5,66.7 	"/>
	<polygon class="st0" points="54.5,66.7 54.5,63.7 57.5,63.7 57.5,66.7 54.5,66.7 	"/>
	<polygon class="st0" points="63.6,66.7 63.6,63.7 66.6,63.7 66.6,66.7 63.6,66.7 	"/>
	<polygon class="st0" points="66.6,66.7 66.6,63.7 69.6,63.7 69.6,66.7 66.6,66.7 	"/>
	<polygon class="st0" points="69.6,66.7 69.6,63.7 72.6,63.7 72.6,66.7 69.6,66.7 	"/>
	<polygon class="st0" points="72.6,66.7 72.6,63.7 75.7,63.7 75.7,66.7 72.6,66.7 	"/>
	<polygon class="st0" points="75.7,66.7 75.7,63.7 78.7,63.7 78.7,66.7 75.7,66.7 	"/>
	<polygon class="st0" points="78.7,66.7 78.7,63.7 81.7,63.7 81.7,66.7 78.7,66.7 	"/>
	<polygon class="st0" points="87.8,66.7 87.8,63.7 90.8,63.7 90.8,66.7 87.8,66.7 	"/>
	<polygon class="st0" points="90.8,66.7 90.8,63.7 93.8,63.7 93.8,66.7 90.8,66.7 	"/>
	<polygon class="st0" points="96.9,66.7 96.9,63.7 99.9,63.7 99.9,66.7 96.9,66.7 	"/>
	<polygon class="st0" points="0,69.7 0,66.7 3,66.7 3,69.7 0,69.7 	"/>
	<polygon class="st0" points="6.1,69.7 6.1,66.7 9.1,66.7 9.1,69.7 6.1,69.7 	"/>
	<polygon class="st0" points="9.1,69.7 9.1,66.7 12.1,66.7 12.1,69.7 9.1,69.7 	"/>
	<polygon class="st0" points="15.1,69.7 15.1,66.7 18.2,66.7 18.2,69.7 15.1,69.7 	"/>
	<polygon class="st0" points="18.2,69.7 18.2,66.7 21.2,66.7 21.2,69.7 18.2,69.7 	"/>
	<polygon class="st0" points="33.3,69.7 33.3,66.7 36.3,66.7 36.3,69.7 33.3,69.7 	"/>
	<polygon class="st0" points="36.3,69.7 36.3,66.7 39.3,66.7 39.3,69.7 36.3,69.7 	"/>
	<polygon class="st0" points="45.4,69.7 45.4,66.7 48.4,66.7 48.4,69.7 45.4,69.7 	"/>
	<polygon class="st0" points="48.4,69.7 48.4,66.7 51.5,66.7 51.5,69.7 48.4,69.7 	"/>
	<polygon class="st0" points="51.5,69.7 51.5,66.7 54.5,66.7 54.5,69.7 51.5,69.7 	"/>
	<polygon class="st0" points="63.6,69.7 63.6,66.7 66.6,66.7 66.6,69.7 63.6,69.7 	"/>
	<polygon class="st0" points="75.7,69.7 75.7,66.7 78.7,66.7 78.7,69.7 75.7,69.7 	"/>
	<polygon class="st0" points="84.8,69.7 84.8,66.7 87.8,66.7 87.8,69.7 84.8,69.7 	"/>
	<polygon class="st0" points="87.8,69.7 87.8,66.7 90.8,66.7 90.8,69.7 87.8,69.7 	"/>
	<polygon class="st0" points="90.8,69.7 90.8,66.7 93.8,66.7 93.8,69.7 90.8,69.7 	"/>
	<polygon class="st0" points="93.8,69.7 93.8,66.7 96.9,66.7 96.9,69.7 93.8,69.7 	"/>
	<polygon class="st0" points="0,72.8 0,69.7 3,69.7 3,72.8 0,72.8 	"/>
	<polygon class="st0" points="15.1,72.8 15.1,69.7 18.2,69.7 18.2,72.8 15.1,72.8 	"/>
	<polygon class="st0" points="24.2,72.8 24.2,69.7 27.2,69.7 27.2,72.8 24.2,72.8 	"/>
	<polygon class="st0" points="27.2,72.8 27.2,69.7 30.3,69.7 30.3,72.8 27.2,72.8 	"/>
	<polygon class="st0" points="30.3,72.8 30.3,69.7 33.3,69.7 33.3,72.8 30.3,72.8 	"/>
	<polygon class="st0" points="33.3,72.8 33.3,69.7 36.3,69.7 36.3,72.8 33.3,72.8 	"/>
	<polygon class="st0" points="39.3,72.8 39.3,69.7 42.4,69.7 42.4,72.8 39.3,72.8 	"/>
	<polygon class="st0" points="45.4,72.8 45.4,69.7 48.4,69.7 48.4,72.8 45.4,72.8 	"/>
	<polygon class="st0" points="63.6,72.8 63.6,69.7 66.6,69.7 66.6,72.8 63.6,72.8 	"/>
	<polygon class="st0" points="66.6,72.8 66.6,69.7 69.6,69.7 69.6,72.8 66.6,72.8 	"/>
	<polygon class="st0" points="69.6,72.8 69.6,69.7 72.6,69.7 72.6,72.8 69.6,72.8 	"/>
	<polygon class="st0" points="72.6,72.8 72.6,69.7 75.7,69.7 75.7,72.8 72.6,72.8 	"/>
	<polygon class="st0" points="75.7,72.8 75.7,69.7 78.7,69.7 78.7,72.8 75.7,72.8 	"/>
	<polygon class="st0" points="78.7,72.8 78.7,69.7 81.7,69.7 81.7,72.8 78.7,72.8 	"/>
	<polygon class="st0" points="84.8,72.8 84.8,69.7 87.8,69.7 87.8,72.8 84.8,72.8 	"/>
	<polygon class="st0" points="87.8,72.8 87.8,69.7 90.8,69.7 90.8,72.8 87.8,72.8 	"/>
	<polygon class="st0" points="90.8,72.8 90.8,69.7 93.8,69.7 93.8,72.8 90.8,72.8 	"/>
	<polygon class="st0" points="96.9,72.8 96.9,69.7 99.9,69.7 99.9,72.8 96.9,72.8 	"/>
	<polygon class="st0" points="0,75.8 0,72.8 3,72.8 3,75.8 0,75.8 	"/>
	<polygon class="st0" points="18.2,75.8 18.2,72.8 21.2,72.8 21.2,75.8 18.2,75.8 	"/>
	<polygon class="st0" points="24.2,75.8 24.2,72.8 27.2,72.8 27.2,75.8 24.2,75.8 	"/>
	<polygon class="st0" points="30.3,75.8 30.3,72.8 33.3,72.8 33.3,75.8 30.3,75.8 	"/>
	<polygon class="st0" points="36.3,75.8 36.3,72.8 39.3,72.8 39.3,75.8 36.3,75.8 	"/>
	<polygon class="st0" points="45.4,75.8 45.4,72.8 48.4,72.8 48.4,75.8 45.4,75.8 	"/>
	<polygon class="st0" points="51.5,75.8 51.5,72.8 54.5,72.8 54.5,75.8 51.5,75.8 	"/>
	<polygon class="st0" points="57.5,75.8 57.5,72.8 60.5,72.8 60.5,75.8 57.5,75.8 	"/>
	<polygon class="st0" points="66.6,75.8 66.6,72.8 69.6,72.8 69.6,75.8 66.6,75.8 	"/>
	<polygon class="st0" points="72.6,75.8 72.6,72.8 75.7,72.8 75.7,75.8 72.6,75.8 	"/>
	<polygon class="st0" points="75.7,75.8 75.7,72.8 78.7,72.8 78.7,75.8 75.7,75.8 	"/>
	<polygon class="st0" points="78.7,75.8 78.7,72.8 81.7,72.8 81.7,75.8 78.7,75.8 	"/>
	<polygon class="st0" points="81.7,75.8 81.7,72.8 84.8,72.8 84.8,75.8 81.7,75.8 	"/>
	<polygon class="st0" points="84.8,75.8 84.8,72.8 87.8,72.8 87.8,75.8 84.8,75.8 	"/>
	<polygon class="st0" points="24.2,78.8 24.2,75.8 27.2,75.8 27.2,78.8 24.2,78.8 	"/>
	<polygon class="st0" points="36.3,78.8 36.3,75.8 39.3,75.8 39.3,78.8 36.3,78.8 	"/>
	<polygon class="st0" points="39.3,78.8 39.3,75.8 42.4,75.8 42.4,78.8 39.3,78.8 	"/>
	<polygon class="st0" points="42.4,78.8 42.4,75.8 45.4,75.8 45.4,78.8 42.4,78.8 	"/>
	<polygon class="st0" points="54.5,78.8 54.5,75.8 57.5,75.8 57.5,78.8 54.5,78.8 	"/>
	<polygon class="st0" points="57.5,78.8 57.5,75.8 60.5,75.8 60.5,78.8 57.5,78.8 	"/>
	<polygon class="st0" points="60.5,78.8 60.5,75.8 63.6,75.8 63.6,78.8 60.5,78.8 	"/>
	<polygon class="st0" points="63.6,78.8 63.6,75.8 66.6,75.8 66.6,78.8 63.6,78.8 	"/>
	<polygon class="st0" points="69.6,78.8 69.6,75.8 72.6,75.8 72.6,78.8 69.6,78.8 	"/>
	<polygon class="st0" points="72.6,78.8 72.6,75.8 75.7,75.8 75.7,78.8 72.6,78.8 	"/>
	<polygon class="st0" points="84.8,78.8 84.8,75.8 87.8,75.8 87.8,78.8 84.8,78.8 	"/>
	<polygon class="st0" points="90.8,78.8 90.8,75.8 93.8,75.8 93.8,78.8 90.8,78.8 	"/>
	<polygon class="st0" points="96.9,78.8 96.9,75.8 99.9,75.8 99.9,78.8 96.9,78.8 	"/>
	<polygon class="st0" points="0,81.8 0,78.8 3,78.8 3,81.8 0,81.8 	"/>
	<polygon class="st0" points="3,81.8 3,78.8 6.1,78.8 6.1,81.8 3,81.8 	"/>
	<polygon class="st0" points="6.1,81.8 6.1,78.8 9.1,78.8 9.1,81.8 6.1,81.8 	"/>
	<polygon class="st0" points="9.1,81.8 9.1,78.8 12.1,78.8 12.1,81.8 9.1,81.8 	"/>
	<polygon class="st0" points="12.1,81.8 12.1,78.8 15.1,78.8 15.1,81.8 12.1,81.8 	"/>
	<polygon class="st0" points="15.1,81.8 15.1,78.8 18.2,78.8 18.2,81.8 15.1,81.8 	"/>
	<polygon class="st0" points="18.2,81.8 18.2,78.8 21.2,78.8 21.2,81.8 18.2,81.8 	"/>
	<polygon class="st0" points="27.2,81.8 27.2,78.8 30.3,78.8 30.3,81.8 27.2,81.8 	"/>
	<polygon class="st0" points="30.3,81.8 30.3,78.8 33.3,78.8 33.3,81.8 30.3,81.8 	"/>
	<polygon class="st0" points="33.3,81.8 33.3,78.8 36.3,78.8 36.3,81.8 33.3,81.8 	"/>
	<polygon class="st0" points="36.3,81.8 36.3,78.8 39.3,78.8 39.3,81.8 36.3,81.8 	"/>
	<polygon class="st0" points="39.3,81.8 39.3,78.8 42.4,78.8 42.4,81.8 39.3,81.8 	"/>
	<polygon class="st0" points="42.4,81.8 42.4,78.8 45.4,78.8 45.4,81.8 42.4,81.8 	"/>
	<polygon class="st0" points="45.4,81.8 45.4,78.8 48.4,78.8 48.4,81.8 45.4,81.8 	"/>
	<polygon class="st0" points="48.4,81.8 48.4,78.8 51.5,78.8 51.5,81.8 48.4,81.8 	"/>
	<polygon class="st0" points="54.5,81.8 54.5,78.8 57.5,78.8 57.5,81.8 54.5,81.8 	"/>
	<polygon class="st0" points="60.5,81.8 60.5,78.8 63.6,78.8 63.6,81.8 60.5,81.8 	"/>
	<polygon class="st0" points="63.6,81.8 63.6,78.8 66.6,78.8 66.6,81.8 63.6,81.8 	"/>
	<polygon class="st0" points="69.6,81.8 69.6,78.8 72.6,78.8 72.6,81.8 69.6,81.8 	"/>
	<polygon class="st0" points="72.6,81.8 72.6,78.8 75.7,78.8 75.7,81.8 72.6,81.8 	"/>
	<polygon class="st0" points="78.7,81.8 78.7,78.8 81.7,78.8 81.7,81.8 78.7,81.8 	"/>
	<polygon class="st0" points="84.8,81.8 84.8,78.8 87.8,78.8 87.8,81.8 84.8,81.8 	"/>
	<polygon class="st0" points="90.8,81.8 90.8,78.8 93.8,78.8 93.8,81.8 90.8,81.8 	"/>
	<polygon class="st0" points="93.8,81.8 93.8,78.8 96.9,78.8 96.9,81.8 93.8,81.8 	"/>
	<polygon class="st0" points="0,84.9 0,81.8 3,81.8 3,84.9 0,84.9 	"/>
	<polygon class="st0" points="18.2,84.9 18.2,81.8 21.2,81.8 21.2,84.9 18.2,84.9 	"/>
	<polygon class="st0" points="24.2,84.9 24.2,81.8 27.2,81.8 27.2,84.9 24.2,84.9 	"/>
	<polygon class="st0" points="27.2,84.9 27.2,81.8 30.3,81.8 30.3,84.9 27.2,84.9 	"/>
	<polygon class="st0" points="33.3,84.9 33.3,81.8 36.3,81.8 36.3,84.9 33.3,84.9 	"/>
	<polygon class="st0" points="42.4,84.9 42.4,81.8 45.4,81.8 45.4,84.9 42.4,84.9 	"/>
	<polygon class="st0" points="60.5,84.9 60.5,81.8 63.6,81.8 63.6,84.9 60.5,84.9 	"/>
	<polygon class="st0" points="63.6,84.9 63.6,81.8 66.6,81.8 66.6,84.9 63.6,84.9 	"/>
	<polygon class="st0" points="69.6,84.9 69.6,81.8 72.6,81.8 72.6,84.9 69.6,84.9 	"/>
	<polygon class="st0" points="72.6,84.9 72.6,81.8 75.7,81.8 75.7,84.9 72.6,84.9 	"/>
	<polygon class="st0" points="84.8,84.9 84.8,81.8 87.8,81.8 87.8,84.9 84.8,84.9 	"/>
	<polygon class="st0" points="87.8,84.9 87.8,81.8 90.8,81.8 90.8,84.9 87.8,84.9 	"/>
	<polygon class="st0" points="90.8,84.9 90.8,81.8 93.8,81.8 93.8,84.9 90.8,84.9 	"/>
	<polygon class="st0" points="0,87.9 0,84.9 3,84.9 3,87.9 0,87.9 	"/>
	<polygon class="st0" points="6.1,87.9 6.1,84.9 9.1,84.9 9.1,87.9 6.1,87.9 	"/>
	<polygon class="st0" points="9.1,87.9 9.1,84.9 12.1,84.9 12.1,87.9 9.1,87.9 	"/>
	<polygon class="st0" points="12.1,87.9 12.1,84.9 15.1,84.9 15.1,87.9 12.1,87.9 	"/>
	<polygon class="st0" points="18.2,87.9 18.2,84.9 21.2,84.9 21.2,87.9 18.2,87.9 	"/>
	<polygon class="st0" points="24.2,87.9 24.2,84.9 27.2,84.9 27.2,87.9 24.2,87.9 	"/>
	<polygon class="st0" points="33.3,87.9 33.3,84.9 36.3,84.9 36.3,87.9 33.3,87.9 	"/>
	<polygon class="st0" points="45.4,87.9 45.4,84.9 48.4,84.9 48.4,87.9 45.4,87.9 	"/>
	<polygon class="st0" points="54.5,87.9 54.5,84.9 57.5,84.9 57.5,87.9 54.5,87.9 	"/>
	<polygon class="st0" points="60.5,87.9 60.5,84.9 63.6,84.9 63.6,87.9 60.5,87.9 	"/>
	<polygon class="st0" points="72.6,87.9 72.6,84.9 75.7,84.9 75.7,87.9 72.6,87.9 	"/>
	<polygon class="st0" points="75.7,87.9 75.7,84.9 78.7,84.9 78.7,87.9 75.7,87.9 	"/>
	<polygon class="st0" points="78.7,87.9 78.7,84.9 81.7,84.9 81.7,87.9 78.7,87.9 	"/>
	<polygon class="st0" points="81.7,87.9 81.7,84.9 84.8,84.9 84.8,87.9 81.7,87.9 	"/>
	<polygon class="st0" points="84.8,87.9 84.8,84.9 87.8,84.9 87.8,87.9 84.8,87.9 	"/>
	<polygon class="st0" points="87.8,87.9 87.8,84.9 90.8,84.9 90.8,87.9 87.8,87.9 	"/>
	<polygon class="st0" points="93.8,87.9 93.8,84.9 96.9,84.9 96.9,87.9 93.8,87.9 	"/>
	<polygon class="st0" points="0,90.9 0,87.9 3,87.9 3,90.9 0,90.9 	"/>
	<polygon class="st0" points="6.1,90.9 6.1,87.9 9.1,87.9 9.1,90.9 6.1,90.9 	"/>
	<polygon class="st0" points="9.1,90.9 9.1,87.9 12.1,87.9 12.1,90.9 9.1,90.9 	"/>
	<polygon class="st0" points="12.1,90.9 12.1,87.9 15.1,87.9 15.1,90.9 12.1,90.9 	"/>
	<polygon class="st0" points="18.2,90.9 18.2,87.9 21.2,87.9 21.2,90.9 18.2,90.9 	"/>
	<polygon class="st0" points="24.2,90.9 24.2,87.9 27.2,87.9 27.2,90.9 24.2,90.9 	"/>
	<polygon class="st0" points="27.2,90.9 27.2,87.9 30.3,87.9 30.3,90.9 27.2,90.9 	"/>
	<polygon class="st0" points="30.3,90.9 30.3,87.9 33.3,87.9 33.3,90.9 30.3,90.9 	"/>
	<polygon class="st0" points="33.3,90.9 33.3,87.9 36.3,87.9 36.3,90.9 33.3,90.9 	"/>
	<polygon class="st0" points="36.3,90.9 36.3,87.9 39.3,87.9 39.3,90.9 36.3,90.9 	"/>
	<polygon class="st0" points="45.4,90.9 45.4,87.9 48.4,87.9 48.4,90.9 45.4,90.9 	"/>
	<polygon class="st0" points="48.4,90.9 48.4,87.9 51.5,87.9 51.5,90.9 48.4,90.9 	"/>
	<polygon class="st0" points="51.5,90.9 51.5,87.9 54.5,87.9 54.5,90.9 51.5,90.9 	"/>
	<polygon class="st0" points="57.5,90.9 57.5,87.9 60.5,87.9 60.5,90.9 57.5,90.9 	"/>
	<polygon class="st0" points="63.6,90.9 63.6,87.9 66.6,87.9 66.6,90.9 63.6,90.9 	"/>
	<polygon class="st0" points="66.6,90.9 66.6,87.9 69.6,87.9 69.6,90.9 66.6,90.9 	"/>
	<polygon class="st0" points="69.6,90.9 69.6,87.9 72.6,87.9 72.6,90.9 69.6,90.9 	"/>
	<polygon class="st0" points="75.7,90.9 75.7,87.9 78.7,87.9 78.7,90.9 75.7,90.9 	"/>
	<polygon class="st0" points="84.8,90.9 84.8,87.9 87.8,87.9 87.8,90.9 84.8,90.9 	"/>
	<polygon class="st0" points="87.8,90.9 87.8,87.9 90.8,87.9 90.8,90.9 87.8,90.9 	"/>
	<polygon class="st0" points="90.8,90.9 90.8,87.9 93.8,87.9 93.8,90.9 90.8,90.9 	"/>
	<polygon class="st0" points="93.8,90.9 93.8,87.9 96.9,87.9 96.9,90.9 93.8,90.9 	"/>
	<polygon class="st0" points="96.9,90.9 96.9,87.9 99.9,87.9 99.9,90.9 96.9,90.9 	"/>
	<polygon class="st0" points="0,93.9 0,90.9 3,90.9 3,93.9 0,93.9 	"/>
	<polygon class="st0" points="6.1,93.9 6.1,90.9 9.1,90.9 9.1,93.9 6.1,93.9 	"/>
	<polygon class="st0" points="9.1,93.9 9.1,90.9 12.1,90.9 12.1,93.9 9.1,93.9 	"/>
	<polygon class="st0" points="12.1,93.9 12.1,90.9 15.1,90.9 15.1,93.9 12.1,93.9 	"/>
	<polygon class="st0" points="18.2,93.9 18.2,90.9 21.2,90.9 21.2,93.9 18.2,93.9 	"/>
	<polygon class="st0" points="24.2,93.9 24.2,90.9 27.2,90.9 27.2,93.9 24.2,93.9 	"/>
	<polygon class="st0" points="27.2,93.9 27.2,90.9 30.3,90.9 30.3,93.9 27.2,93.9 	"/>
	<polygon class="st0" points="30.3,93.9 30.3,90.9 33.3,90.9 33.3,93.9 30.3,93.9 	"/>
	<polygon class="st0" points="36.3,93.9 36.3,90.9 39.3,90.9 39.3,93.9 36.3,93.9 	"/>
	<polygon class="st0" points="54.5,93.9 54.5,90.9 57.5,90.9 57.5,93.9 54.5,93.9 	"/>
	<polygon class="st0" points="69.6,93.9 69.6,90.9 72.6,90.9 72.6,93.9 69.6,93.9 	"/>
	<polygon class="st0" points="72.6,93.9 72.6,90.9 75.7,90.9 75.7,93.9 72.6,93.9 	"/>
	<polygon class="st0" points="75.7,93.9 75.7,90.9 78.7,90.9 78.7,93.9 75.7,93.9 	"/>
	<polygon class="st0" points="78.7,93.9 78.7,90.9 81.7,90.9 81.7,93.9 78.7,93.9 	"/>
	<polygon class="st0" points="81.7,93.9 81.7,90.9 84.8,90.9 84.8,93.9 81.7,93.9 	"/>
	<polygon class="st0" points="90.8,93.9 90.8,90.9 93.8,90.9 93.8,93.9 90.8,93.9 	"/>
	<polygon class="st0" points="0,97 0,93.9 3,93.9 3,97 0,97 	"/>
	<polygon class="st0" points="18.2,97 18.2,93.9 21.2,93.9 21.2,97 18.2,97 	"/>
	<polygon class="st0" points="30.3,97 30.3,93.9 33.3,93.9 33.3,97 30.3,97 	"/>
	<polygon class="st0" points="33.3,97 33.3,93.9 36.3,93.9 36.3,97 33.3,97 	"/>
	<polygon class="st0" points="36.3,97 36.3,93.9 39.3,93.9 39.3,97 36.3,97 	"/>
	<polygon class="st0" points="48.4,97 48.4,93.9 51.5,93.9 51.5,97 48.4,97 	"/>
	<polygon class="st0" points="63.6,97 63.6,93.9 66.6,93.9 66.6,97 63.6,97 	"/>
	<polygon class="st0" points="69.6,97 69.6,93.9 72.6,93.9 72.6,97 69.6,97 	"/>
	<polygon class="st0" points="84.8,97 84.8,93.9 87.8,93.9 87.8,97 84.8,97 	"/>
	<polygon class="st0" points="90.8,97 90.8,93.9 93.8,93.9 93.8,97 90.8,97 	"/>
	<polygon class="st0" points="0,100 0,97 3,97 3,100 0,100 	"/>
	<polygon class="st0" points="3,100 3,97 6.1,97 6.1,100 3,100 	"/>
	<polygon class="st0" points="6.1,100 6.1,97 9.1,97 9.1,100 6.1,100 	"/>
	<polygon class="st0" points="9.1,100 9.1,97 12.1,97 12.1,100 9.1,100 	"/>
	<polygon class="st0" points="12.1,100 12.1,97 15.1,97 15.1,100 12.1,100 	"/>
	<polygon class="st0" points="15.1,100 15.1,97 18.2,97 18.2,100 15.1,100 	"/>
	<polygon class="st0" points="18.2,100 18.2,97 21.2,97 21.2,100 18.2,100 	"/>
	<polygon class="st0" points="24.2,100 24.2,97 27.2,97 27.2,100 24.2,100 	"/>
	<polygon class="st0" points="27.2,100 27.2,97 30.3,97 30.3,100 27.2,100 	"/>
	<polygon class="st0" points="39.3,100 39.3,97 42.4,97 42.4,100 39.3,100 	"/>
	<polygon class="st0" points="48.4,100 48.4,97 51.5,97 51.5,100 48.4,100 	"/>
	<polygon class="st0" points="51.5,100 51.5,97 54.5,97 54.5,100 51.5,100 	"/>
	<polygon class="st0" points="66.6,100 66.6,97 69.6,97 69.6,100 66.6,100 	"/>
	<polygon class="st0" points="72.6,100 72.6,97 75.7,97 75.7,100 72.6,100 	"/>
	<polygon class="st0" points="81.7,100 81.7,97 84.8,97 84.8,100 81.7,100 	"/>
	<polygon class="st0" points="93.8,100 93.8,97 96.9,97 96.9,100 93.8,100 	"/>
</g>
</svg>
