<?xml version="1.0" encoding="utf-8"?>
<!-- Generator: Adobe Illustrator 22.1.0, SVG Export Plug-In . SVG Version: 6.00 Build 0)  -->
<svg version="1.1" id="Capa_1" xmlns="http://www.w3.org/2000/svg" xmlns:xlink="http://www.w3.org/1999/xlink" x="0px" y="0px"
	 viewBox="0 0 185 50" style="enable-background:new 0 0 185 50;" xml:space="preserve">
<style type="text/css">
	.st0{fill:#605978;}
</style>
<g id="xpDs0b.tif_1_">
	<g>
		<path class="st0" d="M76.1,33.9c-0.3-0.3-0.8-0.2-1.1-0.5c-0.4-0.3-0.4-0.3-0.7,0.1c-0.5,0.6-1.2,0.8-1.9,0.4
			c-0.1-0.1-0.3-0.1-0.4-0.1c-0.4-0.1-0.6-0.4-0.9-0.6C71,33.2,71,33,70.8,33.1c-0.1,0-0.1,0-0.1-0.1c-0.1-0.5-0.6-0.7-0.8-1
			c-0.1-0.1-0.2-0.1-0.3,0c-0.1,0-0.1,0.1-0.1,0.2c0,0.3-0.1,0.6-0.1,0.9c-0.1,0.7-1.3,1.1-1.8,0.7c-0.1-0.1-0.1-0.1-0.1-0.2
			c0.1-0.2,0.2-0.3-0.1-0.3c-0.1,0,0-0.1,0-0.2c0.1-0.3,0.4-0.4,0.7-0.2c0.1,0,0.1,0.1,0.2,0.1c0.1-0.4-0.1-0.5-0.3-0.8
			c-0.2-0.2-0.7-0.3-0.5-0.7c0,0,0-0.1-0.1-0.1c-0.2-0.1-0.3-0.2-0.2-0.4c0.1-0.2,0.2-0.5,0.6-0.3c0.1,0,0.1,0,0.1-0.1
			c0-0.1,0.1-0.2,0.2-0.1c0.2,0.2,0.1-0.1,0.2-0.1c-0.1-0.2,0-0.4-0.1-0.6c0-0.1-0.1-0.1,0-0.2c0.1-0.1,0.1-0.3,0.1-0.5
			c0-0.3-0.1-0.5-0.2-0.8c0-0.1-0.1-0.3-0.1-0.5c0-0.1,0-0.3-0.2-0.4c-0.2-0.2-0.4-0.4-0.2-0.7c0.1-0.1,0.1-0.3,0-0.4
			c-0.1-0.3,0-0.6,0.1-0.8c0.1-0.2-0.1-0.4-0.1-0.6c0-0.3-0.1-0.5,0-0.8c0.1-0.2,0-0.5,0.1-0.8c0.1-0.5,0.3-0.8,0.7-1.1
			c0.1,0,0.3,0,0.1-0.2c0,0,0-0.1,0-0.1c0.3-0.1,0.4-0.4,0.6-0.6c0.1-0.1,0.2-0.1,0.3,0c-0.2-0.4-0.1-0.5,0.2-0.6
			c0.1,0,0.1-0.1,0.1-0.1c0.2-0.3,0.4-0.5,0.7-0.6c0.2-0.1,0.3-0.3,0.5-0.4c0.5-0.3,1.1-0.3,1.6-0.4c0.7-0.1,1.3,0.1,2,0.1
			c0.4,0,0.8,0.2,1.3,0.4c0.2,0.1,0.2,0.1,0.3-0.1c0-0.1,0.2-0.2,0.3-0.3c0.4-0.4,1-0.4,1.4-0.9c0.1-0.1,0.3-0.2,0.5-0.3
			c0.4-0.2,0.8-0.5,1.3-0.6c0.3-0.1,0.4-0.2,0.4-0.5c0-0.2-0.1-0.4-0.1-0.6c0-0.2,0.1-0.3,0.1-0.5c0-0.5,0-1,0-1.4
			c0-0.6,0.1-1.1,0-1.7c0-0.1,0-0.3,0.2-0.3c0.2,0,0.4-0.1,0.5,0.1c0.1,0.3,0.3,0.5,0.3,0.8c0,0.4,0.1,0.7,0.2,1.1
			c0.1,0.3,0.1,0.7,0.1,1c0.1,0.4,0.1,0.7,0.2,1.1c0,0.1,0.1,0.2,0.2,0.1c0.2-0.2,0.5-0.1,0.8-0.2c0.3,0,0.6-0.2,0.9-0.3
			c0.4-0.2,0.8-0.1,1.2-0.2c0.6-0.2,1.2-0.2,1.8-0.2c0.4,0,0.7-0.1,1.1,0c0.2,0,0.5,0,0.7,0c0.6,0,1.3,0,1.9,0
			c0.9,0.1,1.7,0.1,2.6,0.3c0.4,0.1,0.9,0.1,1.4,0.1c0.8,0,1.6,0.1,2.4,0.3c0.7,0.1,1.4,0.1,2.1,0.2c0.5,0.1,1,0,1.4,0.3
			c0.2,0.1,0.4,0,0.6,0.1c0.8,0.3,1.6,0.3,2.4,0.6c0.2,0.1,0.4,0.2,0.7,0.2c0.3,0.1,0.6,0.3,1,0.3c0.3,0,0.6,0.4,0.9,0.5
			c0.4,0.1,0.8,0.3,1.1,0.6c0.2,0.1,0.3,0.2,0.5,0.3c0,0,0.1,0,0.1,0.1c0.5,0.5,1.2,0.6,1.7,1c0.3,0.3,0.7,0.5,1,0.8
			c0.2,0.1,0.1,0.3,0.3,0.5c0.5,0.4,1,0.7,1.3,1.3c0.1,0.2,0.2,0.4,0.4,0.6c0.4,0.6,0.8,1.1,0.9,1.8c0,0.3,0.2,0.5,0.1,0.8
			c0,0.1,0,0.3-0.2,0.3c-0.2,0-0.4-0.2-0.3-0.4c0-0.1,0.1-0.2,0.1-0.3c-0.2,0-0.4-0.1-0.3-0.3c0.2-0.3-0.1-0.6-0.1-0.9
			c0-0.2-0.2-0.2-0.3-0.3c-0.2-0.3-0.2-0.7-0.7-0.8c-0.1,0-0.1-0.1-0.1-0.1c-0.1-0.3-0.2-0.5-0.5-0.7c-0.1-0.1-0.2-0.1-0.2-0.3
			c0-0.3-0.2-0.2-0.4-0.3c-0.1,0-0.2-0.1-0.3-0.2c-0.2-0.3-0.4-0.5-0.8-0.6c-0.1,0-0.3-0.1-0.2-0.2c0.1-0.2,0-0.2-0.1-0.3
			c-0.2-0.1-0.1,0.1-0.2,0.2c-0.2-0.1-0.4-0.3-0.7-0.3c-0.2,0-0.4-0.3-0.6-0.4c-0.6-0.4-1.3-0.6-1.8-1c-0.6-0.4-1.3-0.5-2-0.8
			c-0.3-0.1-0.5-0.2-0.7-0.3c-0.4-0.2-0.8-0.2-1.1-0.1c-0.2,0-0.3-0.1-0.5-0.1c-0.1,0,0,0.2-0.1,0.2c-0.1,0-0.1-0.1-0.1-0.2
			c0-0.2-0.1-0.3-0.3-0.1c0,0-0.1,0-0.2,0c-0.3-0.2-0.7-0.1-1-0.3c0,0-0.1,0-0.1,0c-0.4,0.1-0.7-0.1-1-0.1c-0.3,0-0.7-0.2-1-0.1
			c-0.1,0-0.2,0-0.3-0.1c-0.1-0.1-0.3-0.1-0.5-0.1c-0.4,0.1-0.8,0-1.2-0.1c-0.4-0.1-0.8,0-1.2-0.1c-0.6-0.2-1.3-0.1-1.9-0.2
			c-0.6-0.1-1.2-0.1-1.7-0.1c-0.3,0-0.6,0-0.8-0.1c-0.2,0-0.2,0.1-0.2,0.2c0.1,0.3,0,0.7,0.1,1c0,0.2,0,0.5,0,0.7
			c0.1,0.3,0,0.6,0.1,0.9c0,0.2,0.1,0.2,0.2,0.2c0.7-0.1,1.4-0.1,2-0.2c0.1,0,0.3,0,0.4,0c0.1,0,0.3,0,0.4,0c1-0.2,2-0.1,3-0.1
			c0.6,0,1.1,0.1,1.7,0.1c0.7,0,1.4,0.2,2.1,0.5c0.1,0.1,0.3,0.1,0.4,0.1c0.5,0,1,0.3,1.5,0.4c0.5,0.1,1,0.2,1.5,0.4
			c0.4,0.2,0.8,0.4,1.2,0.6c0.4,0.2,0.8,0.3,1.1,0.6c0.2,0.2,0.4,0.5,0.6,0.7c0.2,0.3,0.5,0.6,0.7,0.8c0.3,0.4,0.5,0.9,0.5,1.4
			c0,0.6,0,1.2-0.1,1.7c0,0.2-0.2,0.2-0.2,0.4c0,0.1-0.2,0.2,0,0.2c0.1,0,0.1,0.1,0.1,0.2c0,0.2-0.1,0.3-0.2,0.4
			c-0.4,0.5-0.2,1.3,0.3,1.6c0.3,0.2,0.6,0.4,0.9,0.6c0.3,0.2,0.7,0.1,1,0.2c0.1,0,0.3,0,0.4,0c0.7,0,1.3-0.2,1.9-0.7
			c0.1-0.1,0.3-0.3,0.5-0.4c0.4-0.2,0.5-0.5,0.8-0.9c0.2-0.3,0.3-0.5,0.2-0.8c0-0.1,0-0.2-0.1-0.3c0-0.1-0.1-0.2,0-0.2
			c0.1,0,0.2-0.1,0.3,0c0.1,0.1,0.1,0.2,0,0.3c-0.1,0.1,0,0.2,0,0.4c0.1,0.3,0,0.6-0.1,0.8c-0.2,0.3-0.5,0.6-0.5,1
			c0,0.1-0.1,0.2-0.3,0.2c-0.3,0-0.4,0.2-0.6,0.4c-0.2,0.3-0.6,0.3-0.8,0.5c-0.2,0.1-0.3,0.3-0.6,0.3c-0.4,0-0.7,0.1-1.1,0.1
			c-0.5,0-0.9-0.1-1.4-0.4c-0.3-0.2-0.6-0.4-0.9-0.5c-0.3-0.1-0.3,0-0.3,0.2c0,0.3-0.3,0.9-0.4,1c-0.1,0.1-0.2,0.2-0.2,0.3
			c-0.3,0.6-1,1-1.6,0.9c-0.4-0.1-0.6-0.4-0.8-0.7c-0.1-0.1-0.2-0.3-0.3-0.4c-0.1-0.1-0.1-0.2-0.2-0.1c-0.1,0-0.1,0.1-0.1,0.2
			c0,0.4-0.1,0.7-0.1,1.1c0,0.4-0.3,0.7-0.6,0.9c-0.3,0.2-1.1,0.1-1.4,0c-0.5-0.3-0.7-0.7-1-1.2c-0.1-0.1-0.1-0.1-0.2,0
			c-0.3,0.1-0.5,0.3-0.8,0.4c-0.6,0.2-1.1,0.5-1.8,0.4c-0.2,0-0.4,0.1-0.6,0.2c-0.5,0.2-1,0.3-1.6,0.4c-0.6,0.1-1.2,0-1.7,0.3
			c-0.2,0.1-0.4,0-0.7,0c-0.3,0-0.6,0.2-0.9,0.2c-0.5-0.1-1,0.2-1.5,0.2c-0.4,0-0.8,0.2-1.2,0.4c-0.2,0.2-0.2,0.5-0.2,0.8
			c0,0.5,0,1,0,1.4c0,0.4-0.1,0.8-0.1,1.3c0,0.6-0.2,1.2-0.2,1.9c0,0.4-0.1,0.7-0.2,1.1c0,0.4,0,0.9,0,1.3c0,0.5-0.2,1-0.2,1.5
			c0,0.2-0.2,0.4-0.4,0.4c-0.2-0.1-0.4-0.3-0.4-0.5c0-0.5-0.2-0.9-0.1-1.3c0,0,0-0.1-0.1-0.1c-0.2-0.2-0.1-0.4,0.1-0.6
			c0.2-0.2,0.2-0.4,0.2-0.6c-0.1-0.6,0-1.3,0-1.9c0-0.5,0.1-0.9,0-1.4c-0.1-0.4-0.1-0.9-0.1-1.3c0-0.3,0-0.7,0-1
			c0-0.3,0-0.5-0.1-0.7c0-0.2-0.2-0.1-0.2,0c-0.5,0.1-1,0.2-1.5,0.2c-0.1,0-0.2,0-0.2,0c-0.3,0.3-0.7,0.1-1,0.1
			c-0.4,0-0.8,0.1-1.1,0c-0.1,0-0.3,0-0.4,0c-0.1,0-0.1,0-0.2,0c-0.5,0.1-0.9-0.1-1.4,0c-0.3,0.1-0.7,0-1-0.2
			c-0.2-0.1-0.5-0.1-0.7-0.1c-0.1,0-0.1,0-0.2,0c-0.5-0.2-1-0.2-1.5-0.2c-0.1,0-0.1,0-0.2,0c-0.3-0.3-0.6-0.3-0.9-0.4
			C76.1,34,76,34,76.1,33.9C76,33.9,76.1,33.9,76.1,33.9z M102.1,27.4c0-0.1,0-0.2,0-0.2c0-0.2-0.1-0.4,0.2-0.4
			c0.3,0,0.3,0.2,0.3,0.4c0.1,0.3-0.1,0.5,0,0.8c0,0.2,0,0.2-0.1,0.3c-0.2,0.2-0.2,0.4,0,0.5c0.2,0.1,0.2,0.2,0.1,0.4
			c0,0.2,0,0.2,0.2,0.2c0.4-0.1,0.8-0.4,1.2-0.5c0.5-0.1,0.9-0.5,1.3-0.8c0.3-0.2,0.1-0.5-0.1-0.7c-0.2-0.2-0.2-0.3,0.1-0.4
			c0.1,0,0.2-0.1,0.2-0.2c0-0.3,0.3-0.3,0.5-0.3c0.2,0,0.3-0.1,0.3-0.2c0-0.6,0.2-1.2,0-1.8c-0.3-0.8-0.8-1.5-1.3-2.2
			c-0.3-0.3-0.7-0.5-1.1-0.7c-0.2-0.1-0.5-0.3-0.7-0.3c-0.3,0.1-0.3,0-0.4-0.2c0-0.1-0.1-0.1-0.2-0.1c-0.5-0.2-1-0.3-1.4-0.5
			c-0.1,0-0.2-0.1-0.2,0.1c-0.1,0.3-0.3,0.2-0.4,0.1c-0.2-0.4-0.7-0.4-1-0.5c-0.5-0.2-1-0.4-1.6-0.3c-0.3,0-0.7,0-1-0.1
			c-0.6-0.2-1.1,0-1.7-0.1c-0.3-0.1-0.6,0.1-0.9,0.1c-0.3,0-0.7-0.1-1-0.1c-0.9,0-1.7,0-2.6,0.2c-0.2,0-0.4,0.1-0.6,0
			c-0.3-0.1-0.5,0.1-0.5,0.4c0,0.5,0,0.9,0.1,1.4c0,0.1-0.1,0.3,0,0.4c0.1,0.4,0,0.7-0.1,1c-0.1,0.4-0.2,0.8-0.2,1.2
			c0,0.4-0.1,0.8-0.1,1.2c0,0.3-0.1,0.6-0.1,0.8c-0.1,0.3-0.2,0.7-0.2,1.1c0,0.3-0.1,0.7-0.2,1c0,0.1-0.1,0.1-0.1,0.2
			c-0.1,1,0.2,1.9,0.7,2.8c0.1,0.2,0.3,0.3,0.6,0.3c0.6-0.1,1.2-0.1,1.7-0.2c0.2,0,0.2-0.1,0.3-0.2c0.1-0.2,0-0.5,0.3-0.6
			c0.1,0,0-0.1,0-0.1c-0.2-0.2-0.2-0.4-0.1-0.6c0.1-0.1,0.1-0.3,0-0.4c-0.1-0.1-0.1-0.1-0.1-0.2c-0.1-0.8,0.1-1.6,0-2.3
			c0-0.2,0-0.5,0.1-0.7c0-0.2,0.1-0.2,0.2-0.3c0.1,0,0.2,0,0.3,0.1c0.1,0.2,0.2,0.4,0.2,0.6c-0.1,0.3,0,0.5-0.2,0.8c0,0,0,0.1,0,0.1
			c0.3,0.4,0.1,0.9,0.3,1.3c0.1,0.2,0.2,0.5,0.2,0.8c0,0.4,0.2,0.7,0.3,1.1c0.1,0.2,0.3,0.3,0.5,0.2c0.5-0.2,1.1-0.2,1.7-0.2
			c0.5,0,1-0.1,1.6-0.2c0.2,0,0.4-0.1,0.4-0.3c0.3-0.6,0.5-1.3,0.4-2c0-0.4-0.1-0.8-0.2-1.2c0-0.3,0.1-0.4,0.4-0.5
			c0.3,0,0.3,0.1,0.4,0.3c0.1,0.5,0.2,0.9,0.4,1.4c0.2,0.5,0.5,1,0.7,1.6c0,0.2,0.2,0.3,0.4,0.2c0.3-0.3,0.8-0.2,1.1-0.4
			c0.6-0.2,0.7-0.2,0.6-0.8c-0.1-0.7,0-1.3,0-2c0-0.1,0-0.2,0.2-0.2C102,27,101.9,27.2,102.1,27.4z M84.7,21.1
			c-0.2,0.1-0.3,0-0.5,0.1c-0.5,0.2-1.1,0.3-1.6,0.4c-0.4,0-0.6,0.3-0.6,0.7c0,0.1,0,0.3,0,0.4c0,0.8-0.1,1.6,0,2.5
			c0,0.5,0,1.1,0,1.6c0,0.5-0.2,1-0.1,1.5c0,0.2,0.1,0.4-0.1,0.6c0,0,0,0.1,0,0.2c0.1,0.4,0.4,0.8,0.7,1.2c0.6,0.7,1.3,1.3,2.4,1
			c0.6-0.1,1.2-0.4,1.6-0.8c0.2-0.2,0.4-0.4,0.4-0.7c0.1-0.5,0.2-0.9,0.3-1.4c0.1-0.2,0.3-0.4,0.5-0.5c0.3,0,0.3-0.2,0.3-0.4
			c0.1-0.5,0-1,0.3-1.5c0.3-0.5,0.1-1,0.3-1.5c0.2-0.5,0-1.1,0.1-1.6c0.1-0.8-0.1-1.5,0-2.3c0.1-0.4-0.1-0.5-0.5-0.4
			c-0.4,0.1-0.7,0.2-1.1,0.2c-0.5,0-1,0.2-1.5,0.3C85.4,20.9,85.1,21,84.7,21.1z M80.2,23.6c0.1-0.4-0.1-0.7-0.1-1
			c0-0.1-0.1-0.1-0.2-0.1c-0.2,0.2-0.4,0.1-0.7,0.2c-0.4,0.2-0.8,0.4-1.2,0.6c-0.3,0.2-0.5,0.5-0.9,0.7c-0.3,0.2-0.5,0.4-0.7,0.5
			c-0.5,0.4-0.7,0.9-1,1.4c-0.1,0.2-0.2,0.5-0.1,0.8c0.1,0.3,0.2,0.6,0.3,0.8c0.1,0.7,0.3,1.5,0.5,2.2c0.1,0.3,0.3,0.6,0.6,0.7
			c0.4,0.1,0.7,0.4,1.2,0.5c0.4,0.1,0.7,0.2,1.1,0.3c0.3,0.1,0.8,0.1,1.1,0.2c0.1,0,0.2,0,0.3-0.2c0.1-0.4,0.3-0.7,0.4-1.1
			c0.1-0.3,0.3-0.6,0.1-0.9c-0.4-0.6-0.5-1.3-0.7-2c-0.1-0.4-0.1-0.8-0.1-1.2c0-0.4,0.1-0.8,0-1.2C80.2,24.4,80.4,23.9,80.2,23.6z
			 M71.9,30.3c-0.2,0.1-0.3,0-0.4-0.1c-0.3-0.3-0.2-0.6-0.2-0.9c-0.1-0.4,0.1-0.9-0.2-1.3c0,0,0-0.1,0-0.2c0-0.4,0-0.9,0.2-1.3
			c0.1-0.4,0.2-0.9,0.5-1.2c0.1-0.1,0.2-0.2,0.1-0.4c-0.1-0.1,0-0.3,0.2-0.4c0.1,0,0.1-0.1,0.1-0.1c0.2-0.3,0.3-0.6,0.5-0.8
			c0.1-0.1,0.2-0.3,0.2-0.4c0.2-0.3,0.2-0.7,0.4-0.9c0.1-0.1,0.2-0.2,0.4-0.3c0.2-0.2,0.5-0.4,0.7-0.6c0.1-0.1,0.1-0.1,0.1-0.2
			c0,0-0.1-0.1-0.1-0.1C74,21.2,73.8,21,73.6,21c-0.5,0-1,0.1-1.4,0.1c-0.2,0-0.4,0-0.4,0.2c-0.1,0.3-0.3,0.4-0.6,0.3
			c-0.3-0.1-0.5,0.1-0.7,0.3c0,0,0,0.1-0.1,0.1c-0.5,0.2-1,0.3-1,1c0,0,0,0.1-0.1,0.1c0,0.1-0.1,0.1-0.1,0c0,0,0-0.1-0.1-0.1
			c-0.1,0-0.1,0.1,0,0.1c0.1,0.3,0,0.6,0.1,0.9c-0.1,0.1-0.3-0.1-0.3,0c0,0.3-0.2,0.7,0.1,0.9c0.1,0.1,0.1,0.1,0,0.2
			C69,25.8,69.1,26.4,69,27c0,0.2,0,0.4,0.2,0.5c0.1,0.1,0.1,0.2,0.1,0.3c-0.2,0.4,0,0.8,0.1,1.1c0.2,0.4,0.3,0.9,0.6,1.3
			c0.2,0.3,0.5,0.7,0.7,0.9c0.3,0.3,0.6,0.7,0.9,0.9c0.2,0.2,0.4,0.4,0.6,0.6c0.1,0.1,0.2-0.1,0.3,0.1c0.1,0.3,0.3,0.3,0.6,0.4
			c0.2,0.1,0.3-0.1,0.5-0.1c0.1,0,0.3-0.2,0.3-0.2c-0.1-0.1-0.1-0.4-0.2-0.4c-0.3,0-0.4-0.3-0.6-0.4c-0.3-0.2-0.3-0.5-0.7-0.6
			c-0.3-0.1-0.4-0.5-0.6-0.7C71.6,30.6,71.6,30.5,71.9,30.3z M87.9,16.2c-0.4,0.3-0.9,0.1-1.3,0.2c-0.5,0-0.9-0.1-1.4,0.1
			c-0.1,0-0.1,0-0.2,0c-0.5,0.1-1,0.1-1.4,0.2c-0.4,0.2-0.8,0.3-1.3,0.4c-0.5,0.1-0.6,0.3-0.6,0.8c0.1,1,0.1,1.9,0.2,2.9
			c0,0.2,0,0.2,0.2,0.2c0.4-0.1,0.8-0.3,1.2-0.4c0.8-0.1,1.6-0.4,2.4-0.5c0.5,0,0.9-0.4,1.4-0.2c0,0,0.1,0,0.1,0
			c0.3-0.2,0.7-0.2,1-0.2c0.4,0,0.6-0.2,0.5-0.6c0-0.2-0.2-0.4-0.2-0.6c0-0.6,0-1.2-0.2-1.8c-0.1-0.1-0.1-0.2-0.2-0.3
			c-0.1-0.1-0.1,0.1-0.2,0.2c-0.1,0.1-0.2,0.3-0.4,0.2c-0.1-0.1,0.1-0.2,0.2-0.3C87.9,16.3,87.9,16.2,87.9,16.2z M74.4,22.4
			c0.4-0.2,0.7,0,0.7,0.4c0,0.5-0.1,1,0,1.5c0,0.1,0,0.3,0.1,0.3c0.2,0,0.1-0.2,0.2-0.3c0,0,0.1-0.1,0.1-0.1
			c0.4-0.4,0.9-0.8,1.3-1.1c0.5-0.3,0.9-0.7,1.5-0.9c0.5-0.2,1-0.6,1.6-0.7c0.1,0,0.2-0.2,0.2-0.3c0-0.5,0-1.1,0-1.6
			c0-0.5,0-1-0.1-1.4c0-0.2-0.1-0.2-0.2-0.1c-0.3,0.1-0.5,0.3-0.5,0.4c0.1,0.2,0.1,0.2-0.1,0.2c-0.2,0-0.3,0-0.5,0.1
			c-0.3,0.2-0.5,0.4-0.8,0.5c-0.5,0.2-0.8,0.7-1.3,1c0,0-0.1,0.1-0.1,0.1c0.2,0.3,0.1,0.6-0.1,0.8c-0.2,0.3-0.3,0.4-0.6,0.3
			c-0.4-0.1-0.7,0-1,0.3C74.8,21.8,74.6,22.1,74.4,22.4z M74.1,31.7c0.2,0,0.2-0.1,0.2-0.3c0-0.3,0-0.7,0.1-1c0.1-0.3,0.1-0.7,0.1-1
			c0-0.2-0.1-0.6-0.3-0.9c-0.1-0.1-0.1-0.2-0.1-0.3c0-0.5,0.1-0.9,0.1-1.4c0-0.1-0.1-0.3,0-0.4c0.1-0.1,0.1-0.3,0.1-0.4
			c-0.1-0.3-0.1-0.6-0.3-0.8C74,25.2,74,25,74,24.9c0-0.1,0-0.1,0-0.2c-0.1-0.3-0.3-0.5-0.5-0.7c-0.1-0.1-0.2,0-0.2,0
			c-0.1,0.1,0,0.1,0,0.1c0.1,0.2,0,0.3-0.1,0.4c-0.3,0-0.4,0.2-0.4,0.4c0,0.3-0.2,0.6-0.4,0.9c-0.4,0.8-0.4,1.7-0.2,2.6
			c0,0,0,0.1,0,0.1c0,0,0,0,0.1,0c0.2-0.1,0.2,0.1,0.3,0.1c0.1,0.1-0.1,0.2-0.1,0.3c0.4,0.1,0.6,1,0.3,1.3c0.3,0.1,0.5,0.3,0.6,0.6
			c0.1,0.3,0.3,0.5,0.5,0.6C74.1,31.5,74.1,31.5,74.1,31.7z M77.7,33.3c0.1,0.1,0.2,0.3,0.5,0.3c0.4,0,0.9,0.2,1.3,0.2
			c0.6,0.1,1.1,0,1.7,0.1c0.8,0.1,1.5,0,2.3,0c0.5,0,1,0.3,1.4-0.1c0,0,0.1,0,0.1,0c0.5,0,0.9,0,1.4-0.2c0.2-0.1,0.5,0,0.4-0.3
			c0-0.2,0.1-0.4,0-0.6c-0.1-0.1-0.2-0.2-0.3-0.2c-0.4,0.1-0.7,0-1.1,0c-0.9,0.1-1.7,0.1-2.6-0.1c-0.3-0.1-0.6-0.1-0.8-0.1
			c-0.4,0.1-0.9,0.1-1.3,0c-0.2,0-0.3,0-0.4,0.1c-0.3,0.4-0.7,0.6-1.2,0.7C78.7,33.5,78.2,33.6,77.7,33.3z M105.7,30.4
			c0.2,0,0.1-0.1,0.1-0.2c-0.2-0.2-0.1-0.5,0-0.7c0-0.1,0-0.1,0-0.2c0-0.2-0.2-0.4,0-0.7c0.1-0.1,0.1-0.2,0-0.3
			c-0.1,0-0.2,0.1-0.2,0.2c0,0.2-0.2,0.3-0.3,0.4c-0.2,0.1-0.3,0.3-0.5,0.4c-0.4,0.3-0.7,0.6-1.1,0.8c-0.6,0.3-0.6,0.3-0.3,0.8
			c0,0,0,0,0,0c0.2,0.3,0.5,0.5,0.8,0.5c0.6-0.1,0.8-0.3,0.9-0.7C105.3,30.6,105.3,30.3,105.7,30.4z M89.4,32.4
			c-0.3,0-0.5,0.1-0.8,0.1c-0.1,0-0.2,0.1-0.2,0.2c0,0.1,0,0.3,0,0.4c0,0.1,0,0.3,0.3,0.3c0.7,0,1.4-0.2,2.1-0.3
			c0.9-0.1,1.8-0.3,2.7-0.4c0.1,0,0.1,0,0.2-0.1c0-0.1-0.1-0.1-0.1-0.1c-0.1-0.1-0.2-0.2-0.3-0.3c-0.2-0.3-0.5-0.3-0.8-0.1
			C92,32.5,91.6,32.9,91,33c-0.4,0.1-0.8-0.1-1.1-0.3C89.7,32.5,89.6,32.4,89.4,32.4z M76.3,32.6c-0.1-0.2-0.3-0.3-0.3-0.5
			c0-0.2-0.3-0.4-0.1-0.7c0,0,0,0,0,0c-0.2,0-0.2-0.2-0.3-0.3c0-0.1-0.1-0.1-0.1-0.1c-0.1,0-0.1,0.1-0.1,0.2
			c-0.2,0.3-0.2,0.7-0.4,1.1c-0.1,0.2,0,0.2,0.1,0.3c0.4,0.2,0.8,0.2,1.1,0.4c0.1,0,0.1,0.1,0.1,0c0-0.1,0.2-0.2,0.1-0.3
			C76.4,32.5,76.4,32.5,76.3,32.6z M81.2,24.5c0.1-0.2-0.2-0.3-0.1-0.5c0.2-0.6,0.2-1.2,0.2-1.8c0-0.1,0-0.3-0.2-0.3
			c-0.1,0-0.2,0.1-0.2,0.3c0,0.1,0,0.1,0,0.2c0,0.3,0.2,0.7,0.2,1c-0.1,1.1,0.1,2.2,0,3.3c0,0.1,0,0.1,0,0.2c0,0.1,0,0.1,0.1,0.1
			c0.1,0,0.1-0.1,0.1-0.1c-0.1-0.6,0.2-1.2-0.1-1.7c0,0,0-0.1,0-0.1C81.2,24.9,81.2,24.8,81.2,24.5z M101.1,32.7
			c0.2,0,0.3-0.1,0.4-0.2c0.2-0.3,0.1-0.6,0.2-0.9c0-0.1-0.1-0.2-0.2-0.1c-0.3,0.1-0.6,0.2-0.8,0.3c-0.2,0.1-0.2,0.2-0.3,0.4
			C100.4,32.3,100.9,32.7,101.1,32.7z M82.3,31.8c0.1,0,0.3,0,0.4-0.1c0-0.1-0.1-0.2-0.3-0.3c-0.2-0.1-0.4-0.2-0.4-0.5
			c0-0.1-0.1-0.1-0.2-0.1c-0.2,0-0.6,0.7-0.6,0.9c0,0.1,0.1,0.1,0.1,0.1C81.6,31.7,81.9,31.8,82.3,31.8z M94.1,32
			c0.5,0.2,1,0.3,1.5,0.2c0,0,0.1,0,0.1,0c0.2-0.2,0.4-0.3,0.7-0.3c0.2,0,0.1-0.2,0.1-0.2c0-0.2-0.1-0.1-0.1-0.1
			c-0.5,0.1-1,0.2-1.6,0.2C94.5,31.9,94.3,31.9,94.1,32z M78.9,32.5c-0.2-0.1-0.3-0.1-0.3-0.3c0-0.2-0.1-0.1-0.2-0.1
			c-0.2,0-0.5,0.1-0.6-0.1c-0.1-0.2-0.4-0.2-0.5-0.3c-0.1-0.1-0.2,0-0.3,0c-0.1,0.1,0,0.1,0.1,0.2c0.2,0.5,0.7,0.5,1.1,0.6
			C78.4,32.5,78.7,32.7,78.9,32.5z M97.3,31.9C97.3,31.9,97.3,31.9,97.3,31.9c0.2,0,0.3,0,0.5,0c0.4,0,0.8-0.3,1.2-0.4
			c0.1,0,0.2-0.1,0.1-0.1c0-0.1-0.1-0.1-0.2-0.1c-0.3,0-0.6,0-0.8,0.1C97.7,31.4,97.6,31.8,97.3,31.9z M80.9,21.2
			c0.1-0.1,0.3-0.1,0.3-0.3c0-0.2-0.1-0.5,0-0.8c0.1-0.3,0-0.7-0.1-1c0,0,0-0.1-0.1-0.1C81.1,19.7,80.9,20.4,80.9,21.2z M71.6,20.3
			c0.1,0.1,0.2-0.1,0.4,0c0.1,0.1,0.3,0.1,0.4-0.1c0-0.1,0.1-0.1,0.2,0c0.2,0.1,0.5-0.1,0.7,0.1c0,0,0.3,0,0.4-0.1
			C73,19.9,72.2,20,71.6,20.3z M87.6,31.1c0,0.1,0,0.2,0,0.3c0,0.1-0.1,0.2,0.1,0.2c0.1,0,0.2-0.1,0.2-0.1c-0.1-0.4,0-0.8,0-1.2
			c0-0.1,0-0.1-0.1-0.1c-0.1,0-0.1,0.1-0.1,0.1C87.5,30.5,87.6,30.8,87.6,31.1z"/>
		<path class="st0" d="M69.2,11.6c-0.1,0.1-0.2,0.2-0.3,0.3c0,0-0.2,0.2-0.2,0c0,0,0,0-0.1,0c-0.4,0.1-0.6,0-0.9-0.3
			c-0.2-0.3-0.1-0.5,0.1-0.8c0.1-0.1,0.1-0.3,0.1-0.4c0-0.2,0.2-0.3,0.3-0.4c0.1,0,0.1-0.1,0.2-0.2c0.1-0.3,0.2-0.5,0.6-0.6
			c0.3,0,0.4-0.4,0.7-0.6c0.1-0.1,0.2-0.2,0.4-0.1c0.1,0.1,0.2,0,0.2-0.1c0.5-0.3,1.1-0.2,1.6,0.1c0.2,0.1,0.4,0.4,0.5,0.6
			c0.1,0.1,0,0.2-0.2,0.2c-0.4,0-0.7,0.1-1.1,0c-0.2-0.1-0.4,0-0.5,0.2c-0.1,0.2-0.3,0.3-0.4,0.4c-0.4,0.1-0.5,0.5-0.7,0.7
			c-0.1,0.1-0.1,0.2-0.2,0.3c-0.1,0.1,0,0.1,0.1,0.2c0.1,0.1,0.2,0.3,0,0.4c-0.1,0-0.1,0.1-0.2,0.1C69.1,11.8,69.1,11.7,69.2,11.6z"
			/>
		<path class="st0" d="M102.7,9.7c-0.3,0.2-0.5,0.3-0.8,0.1c-0.7-0.4-1.5-0.6-2.2-1c-0.5-0.2-1-0.3-1.4-0.7
			c-0.3-0.2-0.4-0.6-0.6-0.8c-0.1-0.1,0-0.3,0.3-0.3c0.2,0,0.4,0.1,0.5,0.2c0.2,0.3,0.5,0.4,0.7,0.5c0.6,0.3,1.3,0.6,2,0.9
			c0.5,0.2,1,0.5,1.4,0.9C102.6,9.6,102.7,9.6,102.7,9.7z"/>
		<path class="st0" d="M102.4,21.7c0.4,0,0.7-0.2,1,0.1c0.1,0.1,0.2,0.1,0.4,0.1c0.3,0,0.4,0.2,0.6,0.4c0,0.1,0.1,0.1,0,0.2
			c0,0.1-0.1,0.1-0.2,0.1c-0.1,0-0.2,0-0.3-0.1c-0.4-0.3-0.8-0.5-1.3-0.6C102.5,21.8,102.5,21.7,102.4,21.7z"/>
	</g>
</g>
</svg>
